<?xml version="1.0" encoding="UTF-8" standalone="no"?>
<!-- Created with Inkscape (http://www.inkscape.org/) -->

<svg
   xmlns:dc="http://purl.org/dc/elements/1.1/"
   xmlns:cc="http://creativecommons.org/ns#"
   xmlns:rdf="http://www.w3.org/1999/02/22-rdf-syntax-ns#"
   xmlns:svg="http://www.w3.org/2000/svg"
   xmlns="http://www.w3.org/2000/svg"
   xmlns:sodipodi="http://sodipodi.sourceforge.net/DTD/sodipodi-0.dtd"
   xmlns:inkscape="http://www.inkscape.org/namespaces/inkscape"
   width="64"
   height="64"
   id="svg3440"
   version="1.1"
   inkscape:version="0.91 r13725"
   viewBox="0 0 64 64"
   sodipodi:docname="company.svg"
   inkscape:export-filename="/media/lukas/Data/Stazene/company.png"
   inkscape:export-xdpi="359.86023"
   inkscape:export-ydpi="359.86023">
  <defs
     id="defs3442">
    <inkscape:perspective
       sodipodi:type="inkscape:persp3d"
       inkscape:vp_x="0 : 32 : 1"
       inkscape:vp_y="0 : 1000 : 0"
       inkscape:vp_z="64 : 32 : 1"
       inkscape:persp3d-origin="32 : 21.333333 : 1"
       id="perspective4506" />
  </defs>
  <sodipodi:namedview
     id="base"
     pagecolor="#ffffff"
     bordercolor="#666666"
     borderopacity="1.0"
     inkscape:pageopacity="0.0"
     inkscape:pageshadow="2"
     inkscape:zoom="5.3272394"
     inkscape:cx="21.441025"
     inkscape:cy="45.962979"
     inkscape:current-layer="layer1"
     showgrid="true"
     inkscape:document-units="px"
     inkscape:grid-bbox="true"
     inkscape:window-width="1046"
     inkscape:window-height="711"
     inkscape:window-x="312"
     inkscape:window-y="0"
     inkscape:window-maximized="0" />
  <metadata
     id="metadata3445">
    <rdf:RDF>
      <cc:Work
         rdf:about="">
        <dc:format>image/svg+xml</dc:format>
        <dc:type
           rdf:resource="http://purl.org/dc/dcmitype/StillImage" />
      </cc:Work>
    </rdf:RDF>
  </metadata>
  <g
     id="layer1"
     inkscape:label="Layer 1"
     inkscape:groupmode="layer">
    <rect
       style="opacity:1;fill:#ffffff;fill-opacity:1;stroke:none"
       id="rect4797"
       width="63.71241"
       height="63.455826"
       x="-0.40301579"
       y="0.28763103"
       inkscape:export-xdpi="359"
       inkscape:export-ydpi="359"
       transform="matrix(1,0,0.01673406,0.99985998,0,0)" />
    <path
       style="opacity:0.64499996;fill:#999999;fill-opacity:1;fill-rule:evenodd;stroke:none;stroke-width:1px;stroke-linecap:butt;stroke-linejoin:miter;stroke-opacity:1"
       d="m 24.295313,27.109814 -0.276887,0.06392 c -1.711722,0.393771 -2.593708,0.650975 -3.46888,1.010251 -2.95568,1.21337 -5.189283,3.676671 -6.134668,6.764676 l -0.24812,0.808452 c -3.45e-4,0.0019 -7.36e-4,0.0022 -0.0012,0.0038 l 0,0.0013 c -0.0031,0.0098 -0.0084,0.01643 -0.0096,0.02381 -0.0056,0.0079 -0.0031,0.01033 -0.0072,0.01881 -0.0012,0.0026 -0.0035,0.005 -0.0048,0.0075 l 0.0012,0 c -0.0017,0.0067 -0.0037,0.0137 -0.006,0.02005 -3.32e-4,9.38e-4 -10e-4,0.0015 -0.0012,0.0025 -0.0012,0.0037 -0.0019,0.0066 -0.0036,0.01003 -0.0039,0.0077 -0.0032,0.0061 -0.0036,0.0075 -7.37e-4,0.0084 -0.0034,0.01769 -0.0072,0.02507 -0.0051,0.0098 -0.0039,0.0039 -0.0048,0.0075 -0.0012,0.0035 -0.0036,0.0065 -0.0048,0.01003 -5.5e-4,0.0017 -7.36e-4,0.0033 -0.0012,0.005 -0.0017,0.0061 -0.0037,0.01291 -0.006,0.0188 -0.0013,0.01062 -0.0065,0.02002 -0.01199,0.02883 -0.0016,0.0019 -0.0034,0.0031 -0.0048,0.005 l 0,0.0013 c -0.0017,0.0035 -0.0025,0.0062 -0.0036,0.01003 l -0.0012,0.0013 c -0.002,0.0076 -0.0045,0.01521 -0.0072,0.02257 -0.01302,0.02229 0.0067,-0.01099 -0.0048,0.01754 -0.0015,0.0038 -0.0038,0.0067 -0.006,0.01003 -5.39e-4,10e-4 -0.0017,0.0016 -0.0024,0.0025 l 0,0.0013 c -6.13e-4,0.0032 -0.0027,0.0082 -0.0036,0.01128 -0.002,0.0051 -0.0045,0.0091 -0.0072,0.01378 l -0.0012,0.0013 0,0.0013 c -0.0012,0.0029 -0.0023,0.0059 -0.0036,0.0088 -0.002,0.0058 -0.004,0.01043 -0.006,0.01629 -0.0044,0.0071 -0.005,0.01342 -0.01079,0.0213 l -0.0012,0.0013 c -7.36e-4,0.0015 -0.0017,0.0035 -0.0024,0.005 -8.6e-4,0.0036 -0.0012,0.0078 -0.0024,0.01128 -0.0014,0.0026 -0.0034,0.005 -0.0048,0.0075 -1.62e-4,4.78e-4 2.4e-4,0.002 0,0.0025 -7.36e-4,0.0015 -0.0016,0.0025 -0.0024,0.0038 -0.0038,0.02249 1.42e-4,0.0043 -0.0036,0.0163 l 0.0012,0.0013 c -0.002,0.0085 -0.0026,0.0081 -0.0048,0.01378 0.0023,0.0028 -0.0031,0.0066 -0.0036,0.01003 l 0.0012,0 c -6.75e-4,0.0037 -0.0016,0.0076 -0.0024,0.01128 -0.0019,0.0055 -0.0017,0.0071 -0.0036,0.01378 -4.33e-4,0.0014 -0.0019,0.0049 -0.0012,0.005 l 0,-0.0038 c -0.002,-0.01498 -0.0078,-0.0055 -0.01318,0.0038 l 0,27.902246 16.402265,0 0,-36.988243 -6.096311,0 z m -10.190884,8.415421 c -6.14e-4,0.0022 -0.0018,0.004 -0.0024,0.0063 1.62e-4,6.32e-4 -1.57e-4,0.0031 0,0.0038 0.0012,-0.0032 0.0012,-0.0068 0.0024,-0.01003 z m -0.113872,0.372264 -0.0012,0.0013 0,0.005 c 5.03e-4,-0.002 6.75e-4,-0.0042 0.0012,-0.0063 z m -0.0012,0.204306 0,0.0075 c 7.36e-4,-0.0016 1.5e-4,-0.0031 0.0012,-0.005 9.21e-4,-0.0017 9.82e-4,-2.49e-4 0.0012,-0.0013 -8.59e-4,-2.22e-4 -0.0015,-9.38e-4 -0.0024,-0.0013 z"
       id="rect3448-5-8-1"
       inkscape:connector-curvature="0"
       inkscape:export-xdpi="359"
       inkscape:export-ydpi="359" />
    <path
       style="opacity:0.594;fill:#999999;fill-opacity:1;fill-rule:evenodd;stroke:none;stroke-width:1px;stroke-linecap:butt;stroke-linejoin:miter;stroke-opacity:1"
       d="m 40.076773,20.727422 0.276887,0.07495 c 1.711722,0.461716 2.593708,0.7633 3.46888,1.184569 2.95568,1.422735 5.189283,4.311076 6.134668,7.931912 l 0.24812,0.94795 c 3.45e-4,0.0022 7.36e-4,0.0026 0.0012,0.0044 l 0,0.0015 c 0.0031,0.01147 0.0084,0.01926 0.0096,0.02792 0.0056,0.0093 0.0031,0.01211 0.0072,0.02205 0.0012,0.003 0.0035,0.0059 0.0048,0.0088 l -0.0012,0 c 0.0017,0.0078 0.0037,0.01606 0.006,0.02351 3.32e-4,0.0011 10e-4,0.0018 0.0012,0.0029 0.0012,0.0043 0.0019,0.0077 0.0036,0.01176 0.0039,0.009 0.0032,0.0071 0.0036,0.0088 7.37e-4,0.0098 0.0034,0.02074 0.0072,0.02939 0.0051,0.01151 0.0039,0.0046 0.0048,0.0088 0.0012,0.0041 0.0036,0.0076 0.0048,0.01176 5.5e-4,0.002 7.36e-4,0.0039 0.0012,0.0059 0.0017,0.0071 0.0037,0.01514 0.006,0.02205 0.0013,0.01245 0.0065,0.02347 0.01199,0.0338 0.0016,0.0022 0.0034,0.0036 0.0048,0.0059 l 0,0.0015 c 0.0017,0.0041 0.0025,0.0073 0.0036,0.01176 l 0.0012,0.0015 c 0.002,0.0089 0.0045,0.01784 0.0072,0.02646 0.01302,0.02614 -0.0067,-0.01289 0.0048,0.02057 0.0015,0.0044 0.0038,0.0079 0.006,0.01176 5.39e-4,0.0012 0.0017,0.0019 0.0024,0.0029 l 0,0.0015 c 6.13e-4,0.0038 0.0027,0.0096 0.0036,0.01323 0.002,0.006 0.0045,0.01065 0.0072,0.01616 l 0.0012,0.0015 0,0.0015 c 0.0012,0.0034 0.0023,0.0069 0.0036,0.01029 0.002,0.0068 0.004,0.01223 0.006,0.0191 0.0044,0.0083 0.005,0.01573 0.01079,0.02498 l 0.0012,0.0015 c 7.36e-4,0.0017 0.0017,0.0041 0.0024,0.0059 8.6e-4,0.0042 0.0012,0.0091 0.0024,0.01323 0.0014,0.003 0.0034,0.0059 0.0048,0.0088 1.62e-4,5.6e-4 -2.4e-4,0.0024 0,0.0029 7.36e-4,0.0017 0.0016,0.0029 0.0024,0.0044 0.0038,0.02637 -1.42e-4,0.005 0.0036,0.01911 l -0.0012,0.0015 c 0.002,0.01 0.0026,0.0095 0.0048,0.01616 -0.0023,0.0033 0.0031,0.0077 0.0036,0.01176 l -0.0012,0 c 6.75e-4,0.0043 0.0016,0.0089 0.0024,0.01323 0.0019,0.0065 0.0017,0.0083 0.0036,0.01616 4.33e-4,0.0017 0.0019,0.0057 0.0012,0.0059 l 0,-0.0044 c 0.002,-0.01756 0.0078,-0.0064 0.01318,0.0044 l 0,32.716745 -16.402265,0 0,-43.37052 6.096311,0 z m 10.190884,9.867492 c 6.14e-4,0.0026 0.0018,0.0047 0.0024,0.0074 -1.62e-4,7.41e-4 1.57e-4,0.0036 0,0.0044 -0.0012,-0.0038 -0.0012,-0.008 -0.0024,-0.01176 z m 0.113872,0.436498 0.0012,0.0015 0,0.0059 c -5.03e-4,-0.0024 -6.75e-4,-0.0049 -0.0012,-0.0074 z m 0.0012,0.239559 0,0.0088 c -7.36e-4,-0.0019 -1.5e-4,-0.0036 -0.0012,-0.0059 -9.21e-4,-0.002 -9.82e-4,-2.92e-4 -0.0012,-0.0015 8.59e-4,-2.61e-4 0.0015,-0.0011 0.0024,-0.0015 z"
       id="rect3448-5-8"
       inkscape:connector-curvature="0"
       inkscape:export-xdpi="359"
       inkscape:export-ydpi="359" />
    <path
       style="opacity:1;fill:#666666;fill-opacity:1;fill-rule:evenodd;stroke:none;stroke-width:1px;stroke-linecap:butt;stroke-linejoin:miter;stroke-opacity:1"
       d="m 4.0727214,18.287215 0.175485,0.0795 c 1.0848527,0.489694 1.6438365,0.809551 2.1985018,1.256346 1.8732453,1.508942 3.288855,4.572296 3.8880198,8.412527 l 0.157253,1.005389 c 2.18e-4,0.0023 4.66e-4,0.0027 8.07e-4,0.0047 l 0,0.0016 c 0.002,0.01216 0.0054,0.02042 0.0061,0.02962 0.0036,0.0099 0.0019,0.01284 0.0046,0.02338 8.07e-4,0.0032 0.0022,0.0062 0.003,0.0094 l -8.07e-4,0 c 0.0011,0.0083 0.0024,0.01703 0.0038,0.02494 2.11e-4,0.0011 6.62e-4,0.002 8.07e-4,0.0031 7.39e-4,0.0046 0.0012,0.0082 0.0023,0.01248 0.0024,0.0096 0.002,0.0076 0.0023,0.0094 4.67e-4,0.01044 0.0022,0.02199 0.0046,0.03117 0.0032,0.0122 0.0024,0.0048 0.003,0.0094 7.39e-4,0.0044 0.0023,0.0081 0.003,0.01248 3.49e-4,0.0021 4.66e-4,0.0041 8.06e-4,0.0062 0.0011,0.0076 0.0024,0.01606 0.0038,0.02338 8.07e-4,0.0132 0.0041,0.02489 0.0076,0.03585 0.001,0.0023 0.0022,0.0038 0.003,0.0062 l 0,0.0016 c 0.0011,0.0043 0.0015,0.0077 0.0023,0.01247 l 8.07e-4,0.0016 c 0.0013,0.0094 0.0029,0.01892 0.0046,0.02806 0.0083,0.02772 -0.0042,-0.01367 0.003,0.02182 9.41e-4,0.0046 0.0024,0.0084 0.0038,0.01247 3.42e-4,0.0013 0.0011,0.002 0.0015,0.0031 l 0,0.0016 c 3.89e-4,0.004 0.0017,0.01019 0.0023,0.01403 0.0013,0.0064 0.0029,0.0113 0.0046,0.01714 l 8.07e-4,0.0016 0,0.0016 c 8.07e-4,0.0036 0.0015,0.0073 0.0023,0.01091 0.0013,0.0073 0.0026,0.01298 0.0038,0.02027 0.0028,0.0088 0.0032,0.01669 0.0068,0.0265 l 8.07e-4,0.0016 c 4.66e-4,0.0017 0.0011,0.0044 0.0015,0.0062 5.44e-4,0.0045 8.07e-4,0.0097 0.0015,0.01403 8.74e-4,0.0032 0.0022,0.0062 0.003,0.0094 1.03e-4,5.94e-4 -1.52e-4,0.0025 0,0.0031 4.67e-4,0.0017 0.001,0.003 0.0015,0.0047 0.0024,0.02796 -9e-5,0.0053 0.0023,0.02026 l -8.07e-4,0.0016 c 0.0013,0.01057 0.0016,0.01005 0.003,0.01714 -0.0014,0.0035 0.0019,0.0081 0.0023,0.01247 l -8.07e-4,0 c 4.28e-4,0.0046 0.001,0.0095 0.0015,0.01403 0.0012,0.0069 0.0011,0.0088 0.0023,0.01714 2.74e-4,0.0018 0.0012,0.0061 8.07e-4,0.0062 l 0,-0.0047 c 0.0013,-0.01863 0.0049,-0.0068 0.0084,0.0047 l 0,34.699141 -10.39540144,0 0,-45.998457 3.86371014,0 z m 6.4587616,10.465389 c 3.9e-4,0.0028 0.0011,0.0051 0.0015,0.0078 -1.02e-4,7.95e-4 10e-5,0.0038 0,0.0047 -8.06e-4,-0.004 -8.06e-4,-0.0084 -0.0015,-0.01247 z m 0.07217,0.462948 8.07e-4,0.0016 0,0.0062 c -3.19e-4,-0.0025 -4.29e-4,-0.0052 -8.07e-4,-0.0078 z m 8.07e-4,0.254074 0,0.0094 c -4.67e-4,-0.002 -9.5e-5,-0.0038 -8.07e-4,-0.0062 -5.84e-4,-0.0021 -6.23e-4,-3.09e-4 -8.07e-4,-0.0016 5.45e-4,-2.76e-4 9.41e-4,-0.0012 0.0015,-0.0016 z"
       id="rect3448-5-2"
       inkscape:connector-curvature="0"
       inkscape:export-xdpi="359"
       inkscape:export-ydpi="359" />
    <path
       style="opacity:0.978;fill:#999999;fill-rule:evenodd;stroke:none;stroke-width:1px;stroke-linecap:butt;stroke-linejoin:miter;stroke-opacity:1"
       d="m 13.33966,39.686592 -0.169147,0.04251 c -1.045673,0.261878 -1.584469,0.432934 -2.119103,0.67187 -1.8055939,0.806957 -3.1700786,2.445184 -3.7476043,4.498873 l -0.1515739,0.537662 c -2.108e-4,0.0012 -4.497e-4,0.0015 -7.331e-4,0.0026 l 0,8.65e-4 c -0.00189,0.0066 -0.00513,0.01093 -0.00586,0.01584 -0.00342,0.0053 -0.00189,0.0069 -0.0044,0.01251 -7.33e-4,0.0017 -0.00214,0.0033 -0.00293,0.0049 l 7.33e-4,0 c -0.00104,0.0044 -0.00226,0.0091 -0.00367,0.01334 -2.028e-4,6.24e-4 -6.109e-4,9.6e-4 -7.331e-4,0.0016 -7.33e-4,0.0025 -0.00116,0.0044 -0.0022,0.0067 -0.00238,0.0052 -0.00195,0.004 -0.0022,0.0049 -4.502e-4,0.0056 -0.00208,0.01177 -0.0044,0.01667 -0.00312,0.0066 -0.00238,0.0026 -0.00293,0.0049 -7.331e-4,0.0024 -0.0022,0.0044 -0.00293,0.0067 -3.36e-4,0.0012 -4.496e-4,0.0021 -7.331e-4,0.0033 -0.00104,0.004 -0.00226,0.0086 -0.00367,0.01251 -7.942e-4,0.0071 -0.00397,0.01331 -0.00732,0.01917 -9.774e-4,0.0012 -0.00208,0.0021 -0.00293,0.0033 l 0,8.65e-4 c -0.00104,0.0024 -0.00153,0.0041 -0.0022,0.0067 l -7.33e-4,8.65e-4 c -0.00122,0.005 -0.00275,0.01009 -0.0044,0.01501 -0.00795,0.01482 0.00409,-0.0073 -0.00293,0.01167 -9.163e-4,0.0026 -0.00232,0.0044 -0.00367,0.0067 -3.293e-4,6.64e-4 -0.00104,10e-4 -0.00147,0.0016 l 0,8.65e-4 c -3.745e-4,0.0021 -0.00165,0.0054 -0.0022,0.0075 -0.00122,0.0034 -0.00275,0.006 -0.0044,0.0091 l -7.331e-4,8.64e-4 0,8.65e-4 c -7.33e-4,0.0019 -0.00141,0.004 -0.0022,0.0058 -0.00122,0.0039 -0.00244,0.0069 -0.00367,0.01083 -0.00269,0.0047 -0.00305,0.0089 -0.00659,0.01416 l -7.331e-4,8.64e-4 c -4.496e-4,9.61e-4 -0.00104,0.0024 -0.00147,0.0033 -5.254e-4,0.0024 -7.331e-4,0.0052 -0.00147,0.0075 -8.553e-4,0.0017 -0.00208,0.0033 -0.00293,0.0049 -9.9e-5,3.18e-4 1.466e-4,0.0013 0,0.0016 -4.496e-4,9.61e-4 -9.774e-4,0.0016 -0.00147,0.0026 -0.00232,0.01496 8.67e-5,0.0029 -0.0022,0.01084 l 7.33e-4,8.65e-4 c -0.00122,0.0057 -0.00159,0.0054 -0.00293,0.0091 0.00141,0.0018 -0.00189,0.0044 -0.0022,0.0067 l 7.33e-4,0 c -4.123e-4,0.0025 -9.774e-4,0.005 -0.00147,0.0075 -0.00116,0.0037 -0.00104,0.0047 -0.0022,0.0091 -2.645e-4,9.61e-4 -0.00116,0.0032 -7.331e-4,0.0033 l 0,-0.0026 c -0.00122,-0.01 -0.00476,-0.0037 -0.00805,0.0026 l 0,18.556485 10.0199728,0 0,-24.599158 -3.724173,0 z m -6.2255044,5.596705 c -3.751e-4,0.0015 -0.0011,0.0026 -0.00147,0.0042 9.89e-5,4.21e-4 -9.59e-5,0.0021 0,0.0026 7.33e-4,-0.0021 7.33e-4,-0.0045 0.00147,-0.0067 z m -0.069563,0.247576 -7.331e-4,8.64e-4 0,0.0033 c 3.073e-4,-0.0013 4.124e-4,-0.0028 7.331e-4,-0.0042 z m -7.331e-4,0.135873 0,0.0049 c 4.496e-4,-0.001 9.17e-5,-0.0021 7.331e-4,-0.0033 5.626e-4,-0.0012 5.999e-4,-1.67e-4 7.331e-4,-8.66e-4 -5.248e-4,-1.47e-4 -9.164e-4,-6.22e-4 -0.00147,-8.64e-4 z"
       id="rect3448-5-8-1-6"
       inkscape:connector-curvature="0"
       inkscape:export-xdpi="359"
       inkscape:export-ydpi="359" />
    <path
       style="opacity:0.41300001;fill:#999999;fill-opacity:1;fill-rule:evenodd;stroke:none;stroke-width:1px;stroke-linecap:butt;stroke-linejoin:miter;stroke-opacity:1"
       d="M 34.349531,0.26050003 34.088488,0.37049015 C 32.474714,1.0480313 31.643197,1.4905861 30.818104,2.1087722 28.031555,4.1965469 25.925763,8.4350094 25.034475,13.748359 l -0.233922,1.391057 c -3.25e-4,0.0032 -6.94e-4,0.0038 -0.0012,0.0065 l 0,0.0022 c -0.003,0.01683 -0.008,0.02826 -0.009,0.04098 -0.0053,0.01371 -0.0029,0.01777 -0.0068,0.03235 -0.0012,0.0044 -0.0033,0.0086 -0.0045,0.01294 l 0.0012,0 c -0.0016,0.01147 -0.0035,0.02356 -0.0057,0.03451 -3.13e-4,0.0015 -9.84e-4,0.0027 -0.0012,0.0043 -0.0011,0.0063 -0.0018,0.01136 -0.0034,0.01726 -0.0036,0.01323 -0.003,0.01049 -0.0034,0.01294 -6.94e-4,0.01445 -0.0032,0.03043 -0.0068,0.04313 -0.0048,0.01688 -0.0036,0.0067 -0.0045,0.01294 -0.0011,0.0061 -0.0034,0.01115 -0.0045,0.01726 -5.19e-4,0.0029 -6.94e-4,0.0057 -0.0012,0.0086 -0.0016,0.01049 -0.0035,0.02222 -0.0057,0.03235 -0.0012,0.01827 -0.0061,0.03444 -0.0113,0.0496 -0.0015,0.0032 -0.0032,0.0053 -0.0045,0.0086 l 0,0.0022 c -0.0016,0.006 -0.0023,0.01071 -0.0034,0.01726 l -0.0012,0.0022 c -0.0019,0.01302 -0.0043,0.02618 -0.0068,0.03882 -0.01228,0.03836 0.0063,-0.01891 -0.0045,0.03019 -0.0014,0.0064 -0.0036,0.01156 -0.0057,0.01726 -5.08e-4,0.0018 -0.0016,0.0028 -0.0023,0.0043 l 0,0.0022 c -5.78e-4,0.0055 -0.0025,0.0141 -0.0034,0.01941 -0.0019,0.0088 -0.0043,0.01564 -0.0068,0.02372 l -0.0012,0.0022 0,0.0022 c -0.0012,0.005 -0.0022,0.01016 -0.0034,0.0151 -0.0019,0.01005 -0.0038,0.01796 -0.0057,0.02804 -0.0042,0.01219 -0.0047,0.02309 -0.01017,0.03666 l -0.0012,0.0022 c -6.94e-4,0.0024 -0.0016,0.0061 -0.0023,0.0086 -8.1e-4,0.0062 -0.0012,0.01341 -0.0023,0.01941 -0.0013,0.0044 -0.0032,0.0086 -0.0045,0.01294 -1.53e-4,8.22e-4 2.26e-4,0.0035 0,0.0043 -6.94e-4,0.0024 -0.0015,0.0042 -0.0023,0.0065 -0.0036,0.03869 1.35e-4,0.0073 -0.0034,0.02804 l 0.0012,0.0022 c -0.0019,0.01463 -0.0024,0.0139 -0.0045,0.02372 0.0021,0.0049 -0.0029,0.01126 -0.0034,0.01726 l 0.0012,0 c -6.36e-4,0.0063 -0.0015,0.01313 -0.0023,0.01941 -0.0018,0.0095 -0.0016,0.01219 -0.0034,0.02372 -4.08e-4,0.0025 -0.0018,0.0084 -0.0012,0.0086 l 0,-0.0065 c -0.0019,-0.02577 -0.0073,-0.0094 -0.01243,0.0065 l 0,48.009789 15.463693,0 0,-63.64354055 -5.747467,0 z M 24.741791,14.740429 c -5.79e-4,0.0039 -0.0017,0.007 -0.0023,0.01082 1.53e-4,0.0011 -1.48e-4,0.0053 0,0.0065 0.0012,-0.0055 0.0012,-0.01168 0.0023,-0.01726 z m -0.107356,0.640535 -0.0012,0.0022 0,0.0086 c 4.74e-4,-0.0035 6.37e-4,-0.0072 0.0012,-0.01082 z m -0.0012,0.351537 0,0.01294 c 6.94e-4,-0.0028 1.41e-4,-0.0053 0.0012,-0.0086 8.68e-4,-0.0029 9.26e-4,-4.27e-4 0.0012,-0.0022 -8.1e-4,-3.83e-4 -0.0014,-0.0017 -0.0023,-0.0022 z"
       id="rect3448-5"
       inkscape:connector-curvature="0"
       inkscape:export-xdpi="359"
       inkscape:export-ydpi="359" />
    <path
       style="fill:#999999;fill-rule:evenodd;stroke:none;stroke-width:1px;stroke-linecap:butt;stroke-linejoin:miter;stroke-opacity:1"
       d="m 28.732272,54.985505 -0.169147,0.01558 c -1.045673,0.09601 -1.584469,0.158728 -2.119103,0.246331 -1.805594,0.295858 -3.170079,0.896489 -3.747605,1.649443 l -0.151574,0.197126 c -2.1e-4,4.33e-4 -4.49e-4,5.52e-4 -7.33e-4,9.78e-4 l 0,3.17e-4 c -0.0019,0.0025 -0.0051,0.004 -0.0059,0.0058 -0.0034,0.002 -0.0019,0.0026 -0.0044,0.0046 -7.33e-4,6.31e-4 -0.0021,0.0012 -0.0029,0.0019 l 7.33e-4,0 c -10e-4,0.0016 -0.0023,0.0034 -0.0037,0.0049 -2.03e-4,2.28e-4 -6.11e-4,3.52e-4 -7.33e-4,5.9e-4 -7.33e-4,8.89e-4 -0.0012,0.0016 -0.0022,0.0025 -0.0024,0.002 -0.002,0.0014 -0.0022,0.0019 -4.5e-4,0.002 -0.0021,0.0043 -0.0044,0.0061 -0.0031,0.0025 -0.0024,9.78e-4 -0.0029,0.0019 -7.33e-4,8.66e-4 -0.0022,0.0016 -0.0029,0.0025 -3.36e-4,4.33e-4 -4.49e-4,7.88e-4 -7.33e-4,0.0012 -10e-4,0.0014 -0.0023,0.0032 -0.0037,0.0046 -7.94e-4,0.0026 -0.004,0.0049 -0.0073,0.007 -9.77e-4,4.33e-4 -0.0021,7.87e-4 -0.0029,0.0012 l 0,3.18e-4 c -10e-4,8.66e-4 -0.0015,0.0015 -0.0022,0.0025 l -7.33e-4,3.17e-4 c -0.0012,0.0019 -0.0027,0.0036 -0.0044,0.0055 -0.008,0.0054 0.0041,-0.0027 -0.0029,0.0043 -9.16e-4,9.78e-4 -0.0023,0.0016 -0.0037,0.0025 -3.29e-4,2.43e-4 -0.001,3.84e-4 -0.0015,5.91e-4 l 0,3.16e-4 c -3.74e-4,7.88e-4 -0.0017,0.002 -0.0022,0.0028 -0.0012,0.0012 -0.0028,0.0022 -0.0044,0.0034 l -7.33e-4,3.17e-4 0,3.17e-4 c -7.33e-4,7.08e-4 -0.0014,0.0014 -0.0022,0.0021 -0.0012,0.0014 -0.0024,0.0026 -0.0037,0.004 -0.0027,0.0018 -0.003,0.0033 -0.0066,0.0052 l -7.33e-4,3.17e-4 c -4.5e-4,3.52e-4 -10e-4,8.67e-4 -0.0015,0.0012 -5.26e-4,8.66e-4 -7.33e-4,0.002 -0.0015,0.0028 -8.55e-4,6.3e-4 -0.0021,0.0012 -0.0029,0.0019 -9.9e-5,1.16e-4 1.46e-4,4.73e-4 0,5.9e-4 -4.5e-4,3.52e-4 -9.78e-4,5.9e-4 -0.0015,9.78e-4 -0.0023,0.0055 8.7e-5,9.78e-4 -0.0022,0.004 l 7.33e-4,3.17e-4 c -0.0012,0.002 -0.0016,0.002 -0.0029,0.0034 0.0014,6.69e-4 -0.0019,0.0016 -0.0022,0.0025 l 7.33e-4,0 c -4.12e-4,8.89e-4 -9.78e-4,0.0019 -0.0015,0.0028 -0.0012,0.0013 -0.001,0.0018 -0.0022,0.0034 -2.65e-4,3.53e-4 -0.0012,0.0012 -7.33e-4,0.0012 l 0,-9.78e-4 c -0.0012,-0.0036 -0.0048,-0.0013 -0.0081,9.78e-4 l 0,6.803454 10.019972,0 0,-9.01891 -3.724172,0 z m -6.225505,2.051948 c -3.75e-4,5.5e-4 -0.0011,9.78e-4 -0.0015,0.0015 9.9e-5,1.54e-4 -9.6e-5,7.87e-4 0,9.78e-4 7.33e-4,-7.87e-4 7.33e-4,-0.0016 0.0015,-0.0025 z m -0.06956,0.09077 -7.33e-4,3.17e-4 0,0.0012 c 3.07e-4,-4.73e-4 4.12e-4,-9.78e-4 7.33e-4,-0.0015 z m -7.33e-4,0.04982 0,0.0019 c 4.5e-4,-3.84e-4 9.2e-5,-7.86e-4 7.33e-4,-0.0012 5.63e-4,-4.33e-4 6e-4,-6.2e-5 7.33e-4,-3.19e-4 -5.25e-4,-5.3e-5 -9.16e-4,-2.27e-4 -0.0015,-3.16e-4 z"
       id="rect3448-5-8-1-6-9"
       inkscape:connector-curvature="0"
       inkscape:export-xdpi="359"
       inkscape:export-ydpi="359" />
    <path
       style="fill:#999999;fill-rule:evenodd;stroke:none;stroke-width:1px;stroke-linecap:butt;stroke-linejoin:miter;stroke-opacity:1"
       d="m 35.65211,55.024138 0.184991,0.01558 c 1.143621,0.09601 1.732886,0.158727 2.3176,0.246329 1.974724,0.295859 3.467021,0.896488 4.098643,1.649439 l 0.165772,0.197126 c 2.3e-4,4.33e-4 4.91e-4,5.51e-4 8.02e-4,9.26e-4 l 0,3.19e-4 c 0.0021,0.0024 0.0056,0.004 0.0065,0.0058 0.0037,0.0019 0.0021,0.0025 0.0048,0.0046 8.02e-4,6.3e-4 0.0023,0.0013 0.0032,0.0019 l -8.02e-4,0 c 0.0011,0.0016 0.0025,0.0034 0.004,0.0049 2.22e-4,2.29e-4 6.69e-4,3.53e-4 8.02e-4,5.91e-4 8.02e-4,9.26e-4 0.0013,0.0016 0.0024,0.0024 0.0026,0.0019 0.0022,0.0014 0.0024,0.0019 4.92e-4,0.002 0.0023,0.0043 0.0048,0.0061 0.0034,0.0024 0.0026,9.27e-4 0.0032,0.0019 8.02e-4,8.43e-4 0.0024,0.0016 0.0032,0.0024 3.67e-4,4.33e-4 4.91e-4,7.87e-4 8.01e-4,0.0013 0.0011,0.0014 0.0025,0.0032 0.004,0.0046 8.68e-4,0.0025 0.0044,0.0049 0.008,0.0071 0.0011,4.33e-4 0.0023,7.88e-4 0.0032,0.0013 l 0,3.17e-4 c 0.0011,8.42e-4 0.0016,0.0015 0.0024,0.0024 l 8.02e-4,3.17e-4 c 0.0013,0.0019 0.003,0.0037 0.0048,0.0055 0.0087,0.0054 -0.0045,-0.0027 0.0032,0.0043 0.001,9.27e-4 0.0025,0.0016 0.004,0.0024 3.6e-4,2.43e-4 0.0011,3.84e-4 0.0016,5.9e-4 l 0,3.17e-4 c 4.09e-4,7.87e-4 0.0019,0.0019 0.0024,0.0028 0.0013,0.0013 0.0031,0.0023 0.0048,0.0034 l 8.02e-4,3.17e-4 0,3.17e-4 c 8.02e-4,7.1e-4 0.0015,0.0014 0.0024,0.0021 0.0013,0.0014 0.0026,0.0025 0.004,0.004 0.003,0.0018 0.0033,0.0033 0.0072,0.0052 l 8.01e-4,3.17e-4 c 4.93e-4,3.52e-4 0.0011,8.42e-4 0.0016,0.0013 5.75e-4,8.43e-4 8.02e-4,0.0019 0.0016,0.0028 9.35e-4,6.31e-4 0.0023,0.0013 0.0032,0.0019 1.08e-4,1.16e-4 -1.6e-4,4.72e-4 0,5.9e-4 4.92e-4,3.52e-4 0.0011,5.91e-4 0.0016,9.27e-4 0.0025,0.0055 -9.6e-5,10e-4 0.0024,0.004 l -8.02e-4,3.17e-4 c 0.0013,0.002 0.0018,0.0019 0.0032,0.0034 -0.0015,6.69e-4 0.0021,0.0016 0.0024,0.0024 l -8.02e-4,0 c 4.51e-4,9.27e-4 0.0011,0.0019 0.0016,0.0028 0.0013,0.0013 0.0011,0.0018 0.0024,0.0034 2.89e-4,3.53e-4 0.0013,0.0013 8.01e-4,0.0013 l 0,-9.27e-4 c 0.0013,-0.0037 0.0053,-0.0013 0.0089,9.27e-4 l 0,6.803435 -10.958544,0 0,-9.018883 4.073015,0 z m 6.808649,2.051941 c 4.1e-4,5.51e-4 0.0012,9.27e-4 0.0016,0.0015 -1.09e-4,1.54e-4 1.05e-4,7.88e-4 0,9.27e-4 -8.02e-4,-7.87e-4 -8.02e-4,-0.0016 -0.0016,-0.0024 z m 0.07608,0.09077 8.01e-4,3.17e-4 0,0.0013 c -3.35e-4,-4.73e-4 -4.5e-4,-0.001 -8.01e-4,-0.0015 z m 8.01e-4,0.04982 0,0.0019 c -4.92e-4,-3.83e-4 -1e-4,-7.86e-4 -8.01e-4,-0.0013 -6.16e-4,-4.33e-4 -6.56e-4,-6.1e-5 -8.02e-4,-3.18e-4 5.74e-4,-5.3e-5 10e-4,-2.27e-4 0.0016,-3.16e-4 z"
       id="rect3448-5-8-1-6-9-9"
       inkscape:connector-curvature="0"
       inkscape:export-xdpi="359"
       inkscape:export-ydpi="359" />
    <path
       style="fill:#999999;fill-rule:evenodd;stroke:none;stroke-width:1px;stroke-linecap:butt;stroke-linejoin:miter;stroke-opacity:1"
       d="m 50.75092,39.499369 0.169147,0.04251 c 1.045673,0.261878 1.584469,0.432934 2.119103,0.67187 1.805594,0.806957 3.170078,2.445184 3.747604,4.498873 l 0.151574,0.537662 c 2.1e-4,0.0012 4.49e-4,0.0015 7.33e-4,0.0026 l 0,8.65e-4 c 0.0019,0.0066 0.0051,0.01093 0.0059,0.01584 0.0034,0.0053 0.0019,0.0069 0.0044,0.01251 7.33e-4,0.0017 0.0021,0.0033 0.0029,0.0049 l -7.33e-4,0 c 10e-4,0.0044 0.0023,0.0091 0.0037,0.01334 2.03e-4,6.24e-4 6.11e-4,9.6e-4 7.33e-4,0.0016 7.33e-4,0.0025 0.0012,0.0044 0.0022,0.0067 0.0024,0.0052 0.002,0.004 0.0022,0.0049 4.5e-4,0.0056 0.0021,0.01177 0.0044,0.01667 0.0031,0.0066 0.0024,0.0026 0.0029,0.0049 7.33e-4,0.0024 0.0022,0.0044 0.0029,0.0067 3.36e-4,0.0012 4.49e-4,0.0021 7.33e-4,0.0033 10e-4,0.004 0.0023,0.0086 0.0037,0.01251 7.94e-4,0.0071 0.004,0.01331 0.0073,0.01917 9.77e-4,0.0012 0.0021,0.0021 0.0029,0.0033 l 0,8.65e-4 c 10e-4,0.0024 0.0015,0.0041 0.0022,0.0067 l 7.33e-4,8.65e-4 c 0.0012,0.005 0.0027,0.01009 0.0044,0.01501 0.008,0.01482 -0.0041,-0.0073 0.0029,0.01167 9.16e-4,0.0026 0.0023,0.0044 0.0037,0.0067 3.29e-4,6.64e-4 10e-4,10e-4 0.0015,0.0016 l 0,8.65e-4 c 3.74e-4,0.0021 0.0016,0.0054 0.0022,0.0075 0.0012,0.0034 0.0027,0.006 0.0044,0.0091 l 7.33e-4,8.64e-4 0,8.65e-4 c 7.33e-4,0.0019 0.0014,0.004 0.0022,0.0058 0.0012,0.0039 0.0024,0.0069 0.0037,0.01083 0.0027,0.0047 0.003,0.0089 0.0066,0.01416 l 7.33e-4,8.64e-4 c 4.5e-4,9.61e-4 10e-4,0.0024 0.0015,0.0033 5.26e-4,0.0024 7.33e-4,0.0052 0.0015,0.0075 8.55e-4,0.0017 0.0021,0.0033 0.0029,0.0049 9.9e-5,3.18e-4 -1.46e-4,0.0013 0,0.0016 4.5e-4,9.61e-4 9.78e-4,0.0016 0.0015,0.0026 0.0023,0.01496 -8.7e-5,0.0029 0.0022,0.01084 l -7.33e-4,8.65e-4 c 0.0012,0.0057 0.0016,0.0054 0.0029,0.0091 -0.0014,0.0018 0.0019,0.0044 0.0022,0.0067 l -7.33e-4,0 c 4.12e-4,0.0025 9.78e-4,0.005 0.0015,0.0075 0.0012,0.0037 10e-4,0.0047 0.0022,0.0091 2.65e-4,9.61e-4 0.0012,0.0032 7.33e-4,0.0033 l 0,-0.0026 c 0.0012,-0.01 0.0048,-0.0037 0.008,0.0026 l 0,18.556485 -10.019971,0 0,-24.599158 3.724172,0 z m 6.225504,5.596705 c 3.75e-4,0.0015 0.0011,0.0026 0.0015,0.0042 -9.9e-5,4.21e-4 9.6e-5,0.0021 0,0.0026 -7.33e-4,-0.0021 -7.33e-4,-0.0045 -0.0015,-0.0067 z m 0.06956,0.247576 7.33e-4,8.64e-4 0,0.0033 c -3.07e-4,-0.0013 -4.12e-4,-0.0028 -7.33e-4,-0.0042 z m 7.33e-4,0.135873 0,0.0049 c -4.5e-4,-10e-4 -9.2e-5,-0.0021 -7.33e-4,-0.0033 -5.63e-4,-0.0012 -6e-4,-1.67e-4 -7.33e-4,-8.66e-4 5.25e-4,-1.47e-4 9.16e-4,-6.22e-4 0.0015,-8.64e-4 z"
       id="rect3448-5-8-1-6-0"
       inkscape:connector-curvature="0"
       inkscape:export-xdpi="359"
       inkscape:export-ydpi="359" />
    <rect
       style="fill:#999999;fill-opacity:0.41212122;stroke:none"
       id="rect4612"
       width="3.0034318"
       height="6.7577214"
       x="36.832066"
       y="24.579958"
       inkscape:export-xdpi="359"
       inkscape:export-ydpi="359" />
    <rect
       style="fill:#999999;fill-opacity:0.41212122;stroke:none"
       id="rect4612-8"
       width="3.0034318"
       height="6.7577214"
       x="36.832066"
       y="32.65168"
       inkscape:export-xdpi="359"
       inkscape:export-ydpi="359" />
    <rect
       style="fill:#999999;fill-opacity:0.41212122;stroke:none"
       id="rect4612-8-3"
       width="3.0034318"
       height="6.7577214"
       x="37.019775"
       y="40.723404"
       inkscape:export-xdpi="359"
       inkscape:export-ydpi="359" />
    <rect
       style="opacity:1;fill:#999999;fill-opacity:0.41212122;stroke:none"
       id="rect4612-2"
       width="3.0034318"
       height="6.7577214"
       x="25.944618"
       y="36.969112"
       inkscape:export-xdpi="359"
       inkscape:export-ydpi="359" />
    <rect
       style="fill:#999999;fill-opacity:0.41212122;stroke:none"
       id="rect4612-2-4"
       width="3.0034318"
       height="6.7577214"
       x="25.94462"
       y="28.709677"
       inkscape:export-xdpi="359"
       inkscape:export-ydpi="359" />
    <rect
       style="fill:#999999;fill-opacity:0.41212122;stroke:none"
       id="rect4612-2-7"
       width="3.3788607"
       height="6.7577214"
       x="25.756905"
       y="44.853123"
       inkscape:export-xdpi="359"
       inkscape:export-ydpi="359" />
    <rect
       style="fill:#999999;fill-opacity:0.41212122;stroke:none"
       id="rect4689"
       width="12.013727"
       height="2.0648594"
       x="28.00948"
       y="7.1225104"
       inkscape:export-xdpi="359"
       inkscape:export-ydpi="359" />
    <rect
       style="fill:#999999;fill-opacity:0.41212122;stroke:none"
       id="rect4689-5"
       width="8.6348667"
       height="2.0648594"
       x="31.576054"
       y="10.219801"
       inkscape:export-xdpi="359"
       inkscape:export-ydpi="359" />
    <rect
       style="fill:#999999;fill-opacity:0.41212122;stroke:none"
       id="rect4689-5-1"
       width="8.4471521"
       height="2.0648594"
       x="31.763769"
       y="4.2129359"
       inkscape:export-xdpi="359"
       inkscape:export-ydpi="359" />
    <rect
       style="fill:#ffffff;fill-opacity:0.41212122;stroke:none"
       id="rect4723"
       width="2.8157172"
       height="6.1945782"
       x="13.555464"
       y="42.788261"
       inkscape:export-xdpi="359"
       inkscape:export-ydpi="359" />
    <rect
       style="fill:#ffffff;fill-opacity:0.41212122;stroke:none"
       id="rect4723-3"
       width="2.8157172"
       height="6.1945782"
       x="13.522816"
       y="50.569878"
       inkscape:export-xdpi="359"
       inkscape:export-ydpi="359" />
    <rect
       style="fill:#ffffff;fill-opacity:0.41212122;stroke:none"
       id="rect4723-3-5"
       width="2.8157172"
       height="6.1945782"
       x="47.813362"
       y="41.568119"
       inkscape:export-xdpi="359"
       inkscape:export-ydpi="359" />
    <rect
       style="fill:#ffffff;fill-opacity:0.41212122;stroke:none"
       id="rect4723-3-5-5"
       width="2.8157172"
       height="6.1945782"
       x="47.813362"
       y="48.513557"
       inkscape:export-xdpi="359"
       inkscape:export-ydpi="359" />
    <rect
       style="fill:#e6e6e6;fill-opacity:0.41212122;stroke:none"
       id="rect4689-3"
       width="8.6348667"
       height="2.0648594"
       x="-8.818882"
       y="23.801065"
       inkscape:export-xdpi="359"
       inkscape:export-ydpi="359"
       transform="scale(-1,1)" />
    <rect
       style="fill:#ececec;fill-opacity:0.41212122;stroke:none"
       id="rect4689-5-5"
       width="8.6348667"
       height="2.0648594"
       x="-8.1665983"
       y="27.307943"
       inkscape:export-xdpi="359"
       inkscape:export-ydpi="359"
       transform="scale(-1,1)" />
    <rect
       style="fill:#cccccc;fill-opacity:0.96195649;stroke:none"
       id="rect4689-5-1-0"
       width="5.2995996"
       height="2.0648594"
       x="-5.5385947"
       y="20.737936"
       inkscape:export-xdpi="359"
       inkscape:export-ydpi="359"
       transform="scale(-1,1)" />
    <path
       style="opacity:1;fill:#666666;fill-opacity:1;fill-rule:evenodd;stroke:none;stroke-width:1px;stroke-linecap:butt;stroke-linejoin:miter;stroke-opacity:1"
       d="m 60.533632,33.301995 -0.175485,0.05381 c -1.084852,0.331432 -1.643836,0.547915 -2.198501,0.850312 -1.873246,1.021271 -3.288856,3.094589 -3.88802,5.693707 l -0.157253,0.680461 c -2.18e-4,0.0016 -4.66e-4,0.0018 -8.07e-4,0.0032 l 0,0.0011 c -0.002,0.0082 -0.0054,0.01382 -0.0061,0.02005 -0.0036,0.0067 -0.0019,0.0087 -0.0046,0.01582 -8.07e-4,0.0022 -0.0022,0.0042 -0.003,0.0064 l 8.07e-4,0 c -0.0011,0.0056 -0.0024,0.01153 -0.0038,0.01688 -2.11e-4,7.45e-4 -6.62e-4,0.0014 -8.07e-4,0.0021 -7.39e-4,0.0031 -0.0012,0.0055 -0.0023,0.0084 -0.0024,0.0065 -0.002,0.0051 -0.0023,0.0064 -4.67e-4,0.0071 -0.0022,0.01488 -0.0046,0.0211 -0.0032,0.0083 -0.0024,0.0032 -0.003,0.0064 -7.39e-4,0.003 -0.0023,0.0055 -0.003,0.0084 -3.49e-4,0.0014 -4.66e-4,0.0028 -8.06e-4,0.0042 -0.0011,0.0051 -0.0024,0.01087 -0.0038,0.01582 -8.07e-4,0.0089 -0.0041,0.01685 -0.0076,0.02426 -0.001,0.0016 -0.0022,0.0026 -0.003,0.0042 l 0,0.0011 c -0.0011,0.0029 -0.0015,0.0052 -0.0023,0.0084 l -8.07e-4,0.0011 c -0.0013,0.0064 -0.0029,0.01281 -0.0046,0.01899 -0.0083,0.01876 0.0042,-0.0093 -0.003,0.01477 -9.41e-4,0.0031 -0.0024,0.0057 -0.0038,0.0084 -3.42e-4,8.8e-4 -0.0011,0.0014 -0.0015,0.0021 l 0,0.0011 c -3.89e-4,0.0027 -0.0017,0.0069 -0.0023,0.0095 -0.0013,0.0043 -0.0029,0.0076 -0.0046,0.0116 l -8.07e-4,0.0011 0,0.0011 c -8.07e-4,0.0024 -0.0015,0.0049 -0.0023,0.0074 -0.0013,0.0049 -0.0026,0.0088 -0.0038,0.01372 -0.0028,0.006 -0.0032,0.0113 -0.0068,0.01794 l -8.07e-4,0.0011 c -4.66e-4,0.0011 -0.0011,0.003 -0.0015,0.0042 -5.44e-4,0.003 -8.07e-4,0.0066 -0.0015,0.0095 -8.74e-4,0.0022 -0.0022,0.0042 -0.003,0.0064 -1.03e-4,4.02e-4 1.52e-4,0.0017 0,0.0021 -4.67e-4,0.0011 -10e-4,0.002 -0.0015,0.0032 -0.0024,0.01892 9e-5,0.0036 -0.0023,0.01371 l 8.07e-4,0.0011 c -0.0013,0.0072 -0.0016,0.0068 -0.003,0.0116 0.0014,0.0024 -0.0019,0.0055 -0.0023,0.0084 l 8.07e-4,0 c -4.28e-4,0.0031 -10e-4,0.0064 -0.0015,0.0095 -0.0012,0.0047 -0.0011,0.006 -0.0023,0.0116 -2.74e-4,0.0012 -0.0012,0.0041 -8.07e-4,0.0042 l 0,-0.0032 c -0.0013,-0.01261 -0.0049,-0.0046 -0.0084,0.0032 l 0,23.484829 10.395401,0 0,-31.132353 -3.86371,0 z m -6.458761,7.083111 c -3.9e-4,0.0019 -0.0011,0.0035 -0.0015,0.0053 1.02e-4,5.38e-4 -1e-4,0.0026 0,0.0032 8.06e-4,-0.0027 8.06e-4,-0.0057 0.0015,-0.0084 z m -0.07217,0.313329 -8.07e-4,0.0011 0,0.0042 c 3.19e-4,-0.0017 4.29e-4,-0.0035 8.07e-4,-0.0053 z m -8.07e-4,0.171961 0,0.0064 c 4.67e-4,-0.0014 9.5e-5,-0.0026 8.07e-4,-0.0042 5.84e-4,-0.0014 6.23e-4,-2.1e-4 8.07e-4,-0.0011 -5.45e-4,-1.87e-4 -9.41e-4,-8.13e-4 -0.0015,-0.0011 z"
       id="rect3448-5-2-1"
       inkscape:connector-curvature="0"
       inkscape:export-xdpi="359"
       inkscape:export-ydpi="359" />
    <rect
       style="fill:#ffffff;fill-opacity:0.41212122;stroke:none"
       id="rect4723-3-5-4"
       width="2.8157172"
       height="6.1945782"
       x="60.725636"
       y="36.312115"
       inkscape:export-xdpi="359"
       inkscape:export-ydpi="359" />
    <rect
       style="fill:#ffffff;fill-opacity:0.41212122;stroke:none"
       id="rect4723-3-5-4-5"
       width="2.8157172"
       height="6.1945782"
       x="57.20599"
       y="36.359039"
       inkscape:export-xdpi="359"
       inkscape:export-ydpi="359" />
    <rect
       style="fill:#ffffff;fill-opacity:0.41212122;stroke:none"
       id="rect4723-3-5-4-5-4"
       width="2.8157172"
       height="6.1945782"
       x="60.772564"
       y="43.069836"
       inkscape:export-xdpi="359"
       inkscape:export-ydpi="359" />
    <rect
       style="opacity:1;fill:#b3b3b3;fill-opacity:0.96195649;stroke:none"
       id="rect4915"
       width="0.65700072"
       height="11.919869"
       x="0.56314343"
       y="3.5455256" />
    <rect
       style="opacity:1;fill:#666666;fill-opacity:0.96195649;stroke:none"
       id="rect4917"
       width="3.472718"
       height="1.3140014"
       x="0.16022433"
       y="16.844788" />
    <rect
       style="opacity:1;fill:#666666;fill-opacity:0.96195649;stroke:none"
       id="rect4917-2"
       width="1.9130913"
       height="1.3140014"
       x="0.12191964"
       y="15.425958" />
  </g>
</svg>
