<?xml version="1.0" encoding="UTF-8" standalone="no"?>
<!-- Created with Inkscape (http://www.inkscape.org/) -->

<svg
   width="257mm"
   height="297mm"
   viewBox="0 0 257 297"
   version="1.1"
   id="svg816"
   inkscape:version="1.1 (c68e22c387, 2021-05-23)"
   sodipodi:docname="house.svg"
   xmlns:inkscape="http://www.inkscape.org/namespaces/inkscape"
   xmlns:sodipodi="http://sodipodi.sourceforge.net/DTD/sodipodi-0.dtd"
   xmlns="http://www.w3.org/2000/svg"
   xmlns:svg="http://www.w3.org/2000/svg">
  <sodipodi:namedview
     id="namedview818"
     pagecolor="#ffffff"
     bordercolor="#666666"
     borderopacity="1.0"
     inkscape:pageshadow="2"
     inkscape:pageopacity="0.0"
     inkscape:pagecheckerboard="0"
     inkscape:document-units="mm"
     showgrid="false"
     inkscape:zoom="0.25300224"
     inkscape:cx="33.59654"
     inkscape:cy="626.47665"
     inkscape:window-width="1366"
     inkscape:window-height="711"
     inkscape:window-x="0"
     inkscape:window-y="0"
     inkscape:window-maximized="1"
     inkscape:current-layer="layer1" />
  <defs
     id="defs813" />
  <g
     inkscape:label="Vrstva 1"
     inkscape:groupmode="layer"
     id="layer1">
    <g
       transform="matrix(0.28222223,0,0,0.23543311,-464.87229,73.304889)"
       id="g3879">
      <rect
         y="271.25488"
         x="1714.5825"
         height="652.19104"
         width="776.71887"
         id="rect3696"
         style="color:#000000;clip-rule:nonzero;display:inline;overflow:visible;visibility:visible;opacity:1;isolation:auto;mix-blend-mode:normal;color-interpolation:sRGB;color-interpolation-filters:linearRGB;solid-color:#000000;solid-opacity:1;fill:#f9f9f9;fill-opacity:1;fill-rule:nonzero;stroke-width:1;stroke-linecap:butt;stroke-linejoin:miter;stroke-miterlimit:4;stroke-dasharray:none;stroke-dashoffset:0;stroke-opacity:1;color-rendering:auto;image-rendering:auto;shape-rendering:auto;text-rendering:auto;enable-background:accumulate" />
      <path
         transform="matrix(1.134153,0,0,0.77289703,-251.04888,-7.9283954)"
         inkscape:transform-center-y="-46.653455"
         inkscape:transform-center-x="-0.016130111"
         inkscape:randomized="0"
         inkscape:rounded="0"
         inkscape:flatsided="true"
         sodipodi:arg2="1.5707104"
         sodipodi:arg1="0.5235129"
         sodipodi:r2="228.85991"
         sodipodi:r1="457.71982"
         sodipodi:cy="153.173"
         sodipodi:cx="2075.5474"
         sodipodi:sides="3"
         id="path3694"
         style="color:#000000;clip-rule:nonzero;display:inline;overflow:visible;visibility:visible;opacity:1;isolation:auto;mix-blend-mode:normal;color-interpolation:sRGB;color-interpolation-filters:linearRGB;solid-color:#000000;solid-opacity:1;fill:#ff6600;fill-opacity:1;fill-rule:nonzero;stroke-width:1;stroke-linecap:butt;stroke-linejoin:miter;stroke-miterlimit:4;stroke-dasharray:none;stroke-dashoffset:0;stroke-opacity:1;color-rendering:auto;image-rendering:auto;shape-rendering:auto;text-rendering:auto;enable-background:accumulate"
         sodipodi:type="star"
         d="m 2471.964,381.99887 -792.794,0.0681 396.3381,-686.61376 z" />
      <path
         id="rect3514-5"
         d="m 1800.2246,370.95421 h 238.024 v 221.9094 h -238.024 z"
         style="fill:#552200"
         inkscape:connector-curvature="0" />
      <path
         id="rect3522-8"
         d="m 1809.7455,382.79051 v 97.6401 h 104.7305 v -97.6401 z m 114.2516,0 v 97.6401 h 104.7305 v -97.6401 z m -114.2516,107.9947 v 97.6401 h 104.7305 v -97.6401 z m 114.2516,0 v 97.6401 h 104.7305 v -97.6401 z"
         style="fill:#ffd42a"
         inkscape:connector-curvature="0" />
      <path
         id="rect3514-5-6"
         d="m 2146.6864,370.95422 h 238.024 v 221.9094 h -238.024 z"
         style="fill:#552200"
         inkscape:connector-curvature="0" />
      <path
         id="rect3522-8-6"
         d="m 2156.2073,382.79052 v 97.6401 h 104.7305 v -97.6401 z m 114.2516,0 v 97.6401 h 104.7305 v -97.6401 z m -114.2516,107.9947 v 97.6401 h 104.7305 v -97.6401 z m 114.2516,0 v 97.6401 h 104.7305 v -97.6401 z"
         style="fill:#afc6e9"
         inkscape:connector-curvature="0" />
      <rect
         y="683.28455"
         x="1778.2992"
         height="239.07474"
         width="168.18857"
         id="rect5214-8"
         style="fill:#d45500" />
      <path
         id="rect5216-5"
         d="m 1778.2992,682.81557 v 239.07464 0.46907 h 161.9921 v -0.46907 h 7.0815 V 682.81557 h -0.8848 -152.2553 z m 15.9335,17.34474 h 59.3086 v 143.44473 h -59.3086 z m 75.2425,0 h 61.9641 v 96.56763 h -9.5539 c -2.0632,0 -3.7242,1.75929 -3.7242,3.94456 v 1.48643 c 0,2.18526 1.661,3.94456 3.7242,3.94456 h 9.5539 v 37.50155 h -61.9641 z"
         style="fill:#552200"
         inkscape:connector-curvature="0" />
      <path
         inkscape:connector-curvature="0"
         d="m 1869.4135,-92.5674 c 0.8455,-7.8531 0.41,-15.7788 1.255,-23.6317 0.8241,-7.6581 1.3879,-8.9202 3.2006,-16.4903 0.9405,-2.7936 1.7175,-5.6476 2.8217,-8.3807 2.1924,-5.4268 5.9515,-12.5348 8.9227,-17.5717 2.8774,-4.8779 5.7319,-9.1941 9.3698,-13.513 1.3715,-1.6282 2.9215,-3.0973 4.3823,-4.646 15.2155,-12.278 11.155,-9.3999 44.6932,-25.8208 1.4161,-0.6933 3.2149,-0.1735 4.7209,0.2931 3.3452,1.0364 6.0518,3.8177 7.9651,6.5842 1.0846,1.5684 1.8074,3.3582 2.711,5.0373 1.2717,3.2122 2.9971,6.3958 2.7046,10.0231 -0.1286,1.5954 -0.1212,3.6862 -1.4507,4.5775 -13.1355,8.8068 -26.1564,18.4117 -40.9952,23.8808 -3.752,1.3829 -7.4214,-2.9929 -11.0356,-4.7038 -5.1731,-2.4489 -10.2081,-5.1794 -15.3121,-7.7691 -18.4765,-10.2323 -34.1929,-22.5773 -47.2474,-39.3042 -6.132,-7.8571 -13.5196,-19.7808 -16.4172,-29.6436 -1.2362,-4.208 -1.1625,-8.6942 -1.7438,-13.0412 0.6179,-3.6221 0.7057,-7.3758 1.8538,-10.8663 1.0124,-3.0778 2.6186,-5.9872 4.5466,-8.5913 1.6962,-2.2912 3.7205,-4.4742 6.1859,-5.9054 13.6388,-7.9176 27.2762,-16.0592 41.8845,-22.0006 4.0453,-1.6453 14.4902,3.877 17.4964,5.2082 2.7084,1.9145 5.5858,3.6099 8.1253,5.7435 9.5409,8.016 17.6427,20.4217 22.1531,31.9935 1.0551,2.7071 1.7537,5.54 2.6305,8.31 1.6983,7.0242 1.7274,14.0016 0.2122,21.037 -0.1176,0.5462 -1.7284,7.1528 -2.9155,7.8869 -12.9493,8.0075 -26.5467,14.9162 -39.82,22.3743 -1.091,-1.6271 -2.527,-3.0699 -3.273,-4.8814 -0.877,-2.1297 -1.1712,-4.4642 -1.5136,-6.7418 -1.2744,-8.4767 -1.0233,-17.2835 1.2751,-25.5734 0.7301,-2.6335 1.9021,-5.124 2.8531,-7.6859 1.5942,-2.2153 2.9229,-4.6482 4.7825,-6.6459 1.8199,-1.955 3.8655,-3.7604 6.1665,-5.1165 21.8976,-12.9056 29.5121,-21.3275 48.8515,-24.5832 4.4041,-0.7413 8.9036,-0.9068 13.3502,-1.1767 4.2762,-0.4541 8.6164,0.3646 12.8812,-0.2705 0.7743,-0.1153 1.5123,-0.4049 2.2685,-0.6074 0,0 -35.5811,26.4028 -35.5811,26.4028 v 0 c -4.348,-0.3534 -8.6747,-1.0288 -13.0518,-0.9337 -4.8479,0.199 -7.091,0.095 -12.0067,1.1909 -2.3103,0.5153 -8.7347,3.3836 -6.8136,2.0007 8.6816,-6.249 18.2019,-11.242 27.3511,-16.7838 2.2264,-1.3485 -4.573,2.5467 -6.5808,4.2031 -1.9893,1.6411 -3.5476,3.744 -5.3213,5.616 -1.1339,2.3804 -2.5137,4.6586 -3.4016,7.1412 -2.6345,7.3655 -3.1413,15.2906 -0.6553,22.769 1.4878,4.4753 0.9894,3.9696 3.5079,4.9572 -11.6772,7.093 -23.3545,14.1861 -35.0317,21.2791 1.0045,-0.8001 2.2337,-1.3799 3.0135,-2.4003 1.0226,-1.338 1.6254,-2.9576 2.27,-4.5133 2.8099,-6.7816 3.3488,-12.6935 2.4004,-19.987 -1.8285,-7.2321 -1.9925,-9.39 -5.3251,-16.2483 -3.9004,-8.0268 -10.1907,-16.6187 -17.3252,-22.0786 -2.4649,-1.8864 -5.3062,-3.2219 -7.9594,-4.8328 -2.8081,-0.8842 -5.5179,-2.1835 -8.4244,-2.6526 -14.7427,-2.3794 -25.0116,10.5441 18.1413,-17.1048 2.51,-1.6083 -5.2617,2.945 -7.3995,5.0226 -6.5394,6.3553 -6.6027,9.9047 -9.5809,18.4118 -0.1197,4.3241 -0.9751,8.6907 -0.3589,12.9723 0.7292,5.0661 2.3624,10.0086 4.3455,14.727 2.2925,5.4549 5.024,10.7804 8.4129,15.6307 7.6026,10.8811 18.1473,20.7555 29.3473,27.8304 5.8386,3.6881 12.358,6.1682 18.5371,9.2523 6.0363,1.6796 11.9093,4.1318 18.109,5.0387 4.6185,0.6756 17.0928,-3.8368 13.9987,-0.3421 -8.1019,9.1507 -20.525,13.2844 -31.0132,19.5592 -1.0565,0.6321 2.1032,-1.4754 2.6392,-2.5837 1.5455,-3.1956 -0.097,-5.4862 -1.1839,-8.4175 -2.2503,-3.5395 -4.0348,-7.1338 -8.8287,-7.3561 -1.1844,-0.055 -4.502,1.2272 -3.5099,0.5778 8.6407,-5.656 46.2734,-27.7432 26.571,-15.9323 -5.0863,4.3234 -6.4949,5.1499 -10.8985,10.5535 -7.6671,9.4082 -13.0337,20.3923 -16.668,31.922 -0.6273,2.6277 -1.3886,5.2269 -1.8818,7.883 -1.7622,9.4902 -1.4356,19.3372 1.2539,28.6175 0,0 -39.6372,20.8211 -39.6372,20.8211 z"
         id="path3863"
         style="color:#000000;clip-rule:nonzero;display:inline;overflow:visible;visibility:visible;opacity:1;isolation:auto;mix-blend-mode:normal;color-interpolation:sRGB;color-interpolation-filters:linearRGB;solid-color:#000000;solid-opacity:1;fill:#333333;fill-opacity:1;fill-rule:nonzero;stroke-width:1;stroke-linecap:butt;stroke-linejoin:miter;stroke-miterlimit:4;stroke-dasharray:none;stroke-dashoffset:0;stroke-opacity:1;color-rendering:auto;image-rendering:auto;shape-rendering:auto;text-rendering:auto;enable-background:accumulate" />
      <rect
         y="-133.66504"
         x="1827.384"
         height="225.60297"
         width="132.13889"
         id="rect3789"
         style="color:#000000;clip-rule:nonzero;display:inline;overflow:visible;visibility:visible;opacity:1;isolation:auto;mix-blend-mode:normal;color-interpolation:sRGB;color-interpolation-filters:linearRGB;solid-color:#000000;solid-opacity:1;fill:#ff6600;fill-opacity:1;fill-rule:nonzero;stroke-width:1;stroke-linecap:butt;stroke-linejoin:miter;stroke-miterlimit:4;stroke-dasharray:none;stroke-dashoffset:0;stroke-opacity:1;color-rendering:auto;image-rendering:auto;shape-rendering:auto;text-rendering:auto;enable-background:accumulate" />
      <rect
         y="675.28271"
         x="2046.5413"
         height="248.16302"
         width="409.30823"
         id="rect3791"
         style="color:#000000;clip-rule:nonzero;display:inline;overflow:visible;visibility:visible;opacity:1;isolation:auto;mix-blend-mode:normal;color-interpolation:sRGB;color-interpolation-filters:linearRGB;solid-color:#000000;solid-opacity:1;fill:#d45500;fill-opacity:1;fill-rule:nonzero;stroke-width:1;stroke-linecap:butt;stroke-linejoin:miter;stroke-miterlimit:4;stroke-dasharray:none;stroke-dashoffset:0;stroke-opacity:1;color-rendering:auto;image-rendering:auto;shape-rendering:auto;text-rendering:auto;enable-background:accumulate" />
      <rect
         y="727.65491"
         x="2046.9441"
         height="8.0572462"
         width="407.69675"
         id="rect3793"
         style="color:#000000;clip-rule:nonzero;display:inline;overflow:visible;visibility:visible;opacity:1;isolation:auto;mix-blend-mode:normal;color-interpolation:sRGB;color-interpolation-filters:linearRGB;solid-color:#000000;solid-opacity:1;fill:#a05a2c;fill-opacity:1;fill-rule:nonzero;stroke-width:1;stroke-linecap:butt;stroke-linejoin:miter;stroke-miterlimit:4;stroke-dasharray:none;stroke-dashoffset:0;stroke-opacity:1;color-rendering:auto;image-rendering:auto;shape-rendering:auto;text-rendering:auto;enable-background:accumulate" />
      <rect
         y="751.02106"
         x="2047.7498"
         height="8.0572462"
         width="406.89102"
         id="rect3793-9"
         style="color:#000000;clip-rule:nonzero;display:inline;overflow:visible;visibility:visible;opacity:1;isolation:auto;mix-blend-mode:normal;color-interpolation:sRGB;color-interpolation-filters:linearRGB;solid-color:#000000;solid-opacity:1;fill:#a05a2c;fill-opacity:1;fill-rule:nonzero;stroke-width:1;stroke-linecap:butt;stroke-linejoin:miter;stroke-miterlimit:4;stroke-dasharray:none;stroke-dashoffset:0;stroke-opacity:1;color-rendering:auto;image-rendering:auto;shape-rendering:auto;text-rendering:auto;enable-background:accumulate" />
      <rect
         y="779.22144"
         x="2046.944"
         height="8.0572462"
         width="408.50247"
         id="rect3793-9-8"
         style="color:#000000;clip-rule:nonzero;display:inline;overflow:visible;visibility:visible;opacity:1;isolation:auto;mix-blend-mode:normal;color-interpolation:sRGB;color-interpolation-filters:linearRGB;solid-color:#000000;solid-opacity:1;fill:#a05a2c;fill-opacity:1;fill-rule:nonzero;stroke-width:1;stroke-linecap:butt;stroke-linejoin:miter;stroke-miterlimit:4;stroke-dasharray:none;stroke-dashoffset:0;stroke-opacity:1;color-rendering:auto;image-rendering:auto;shape-rendering:auto;text-rendering:auto;enable-background:accumulate" />
      <rect
         y="809.04541"
         x="2046.1962"
         height="8.0572462"
         width="408.50247"
         id="rect3793-9-8-8"
         style="color:#000000;clip-rule:nonzero;display:inline;overflow:visible;visibility:visible;opacity:1;isolation:auto;mix-blend-mode:normal;color-interpolation:sRGB;color-interpolation-filters:linearRGB;solid-color:#000000;solid-opacity:1;fill:#a05a2c;fill-opacity:1;fill-rule:nonzero;stroke-width:1;stroke-linecap:butt;stroke-linejoin:miter;stroke-miterlimit:4;stroke-dasharray:none;stroke-dashoffset:0;stroke-opacity:1;color-rendering:auto;image-rendering:auto;shape-rendering:auto;text-rendering:auto;enable-background:accumulate" />
      <rect
         y="676.08844"
         x="2044.1241"
         height="248.16321"
         width="25.783195"
         id="rect3840"
         style="color:#000000;clip-rule:nonzero;display:inline;overflow:visible;visibility:visible;opacity:1;isolation:auto;mix-blend-mode:normal;color-interpolation:sRGB;color-interpolation-filters:linearRGB;solid-color:#000000;solid-opacity:1;fill:#552200;fill-opacity:1;fill-rule:nonzero;stroke-width:1;stroke-linecap:butt;stroke-linejoin:miter;stroke-miterlimit:4;stroke-dasharray:none;stroke-dashoffset:0;stroke-opacity:1;color-rendering:auto;image-rendering:auto;shape-rendering:auto;text-rendering:auto;enable-background:accumulate" />
      <rect
         y="674.47693"
         x="2043.7212"
         height="22.560474"
         width="412.53116"
         id="rect3842"
         style="color:#000000;clip-rule:nonzero;display:inline;overflow:visible;visibility:visible;opacity:1;isolation:auto;mix-blend-mode:normal;color-interpolation:sRGB;color-interpolation-filters:linearRGB;solid-color:#000000;solid-opacity:1;fill:#552200;fill-opacity:1;fill-rule:nonzero;stroke-width:1;stroke-linecap:butt;stroke-linejoin:miter;stroke-miterlimit:4;stroke-dasharray:none;stroke-dashoffset:0;stroke-opacity:1;color-rendering:auto;image-rendering:auto;shape-rendering:auto;text-rendering:auto;enable-background:accumulate" />
      <rect
         y="674.81091"
         x="2430.636"
         height="248.16321"
         width="25.783195"
         id="rect3840-6"
         style="color:#000000;clip-rule:nonzero;display:inline;overflow:visible;visibility:visible;opacity:1;isolation:auto;mix-blend-mode:normal;color-interpolation:sRGB;color-interpolation-filters:linearRGB;solid-color:#000000;solid-opacity:1;fill:#552200;fill-opacity:1;fill-rule:nonzero;stroke-width:1;stroke-linecap:butt;stroke-linejoin:miter;stroke-miterlimit:4;stroke-dasharray:none;stroke-dashoffset:0;stroke-opacity:1;color-rendering:auto;image-rendering:auto;shape-rendering:auto;text-rendering:auto;enable-background:accumulate" />
    </g>
  </g>
</svg>
