<?xml version="1.0" encoding="UTF-8" standalone="no"?>
<!-- Created with Inkscape (http://www.inkscape.org/) -->

<svg
   width="264mm"
   height="245mm"
   viewBox="0 0 264 245"
   version="1.1"
   id="svg539"
   inkscape:version="1.1 (c68e22c387, 2021-05-23)"
   sodipodi:docname="pig.svg"
   xmlns:inkscape="http://www.inkscape.org/namespaces/inkscape"
   xmlns:sodipodi="http://sodipodi.sourceforge.net/DTD/sodipodi-0.dtd"
   xmlns="http://www.w3.org/2000/svg"
   xmlns:svg="http://www.w3.org/2000/svg">
  <sodipodi:namedview
     id="namedview541"
     pagecolor="#ffffff"
     bordercolor="#666666"
     borderopacity="1.0"
     inkscape:pageshadow="2"
     inkscape:pageopacity="0.0"
     inkscape:pagecheckerboard="0"
     inkscape:document-units="mm"
     showgrid="false"
     inkscape:zoom="0.25300224"
     inkscape:cx="284.58246"
     inkscape:cy="618.57159"
     inkscape:window-width="1366"
     inkscape:window-height="711"
     inkscape:window-x="0"
     inkscape:window-y="0"
     inkscape:window-maximized="1"
     inkscape:current-layer="layer1" />
  <defs
     id="defs536" />
  <g
     inkscape:label="Vrstva 1"
     inkscape:groupmode="layer"
     id="layer1">
    <g
       id="g5825"
       transform="matrix(0.28222223,0,0,0.28222223,-468.92563,845.33618)">
      <path
         transform="rotate(-52.899999,1720.0591,-2774.0444)"
         inkscape:transform-center-y="25.494768"
         inkscape:transform-center-x="-15.302373"
         inkscape:randomized="0"
         inkscape:rounded="0.08"
         inkscape:flatsided="true"
         sodipodi:arg2="-0.45471194"
         sodipodi:arg1="-1.5019095"
         sodipodi:r2="83.911888"
         sodipodi:r1="167.82378"
         sodipodi:cy="-2736.4419"
         sodipodi:cx="1795.6431"
         sodipodi:sides="3"
         id="path4466"
         style="color:#000000;clip-rule:nonzero;display:inline;overflow:visible;visibility:visible;opacity:1;isolation:auto;mix-blend-mode:normal;color-interpolation:sRGB;color-interpolation-filters:linearRGB;solid-color:#000000;solid-opacity:1;fill:#ff5555;fill-opacity:1;fill-rule:nonzero;stroke:#000000;stroke-width:1;stroke-linecap:butt;stroke-linejoin:miter;stroke-miterlimit:4;stroke-dasharray:none;stroke-dashoffset:0;stroke-opacity:1;color-rendering:auto;image-rendering:auto;shape-rendering:auto;text-rendering:auto;enable-background:accumulate"
         sodipodi:type="star"
         d="m 1807.1948,-2903.8676 c 23.1992,1.6006 140.6532,241.8519 127.6674,261.1426 -12.9858,19.2908 -279.7765,0.8833 -289.9899,-20.0081 -10.2134,-20.8914 139.1233,-242.7352 162.3225,-241.1345 z" />
      <path
         transform="rotate(39.2,2108.0307,-3669.7347)"
         inkscape:transform-center-y="14.976002"
         inkscape:transform-center-x="-9.6066023"
         inkscape:randomized="0"
         inkscape:rounded="0.08"
         inkscape:flatsided="true"
         sodipodi:arg2="0.040877712"
         sodipodi:arg1="-1.0063198"
         sodipodi:r2="50.478493"
         sodipodi:r1="100.95699"
         sodipodi:cy="-2805.3894"
         sodipodi:cx="2447.7983"
         sodipodi:sides="3"
         id="path4483-0"
         style="color:#000000;clip-rule:nonzero;display:inline;overflow:visible;visibility:visible;opacity:1;isolation:auto;mix-blend-mode:normal;color-interpolation:sRGB;color-interpolation-filters:linearRGB;solid-color:#000000;solid-opacity:1;fill:#ffaaaa;fill-opacity:1;fill-rule:nonzero;stroke:#000000;stroke-width:1;stroke-linecap:butt;stroke-linejoin:miter;stroke-miterlimit:4;stroke-dasharray:none;stroke-dashoffset:0;stroke-opacity:1;color-rendering:auto;image-rendering:auto;shape-rendering:auto;text-rendering:auto;enable-background:accumulate"
         sodipodi:type="star"
         d="m 2501.8077,-2890.6848 c 11.8188,7.4837 5.2445,168.223 -7.146,174.7166 -12.3906,6.4935 -148.3077,-79.5696 -147.736,-93.5469 0.5717,-13.9774 143.0631,-88.6535 154.882,-81.1697 z" />
      <path
         transform="rotate(-75.900001,2081.7135,-3208.9221)"
         inkscape:transform-center-y="24.392024"
         inkscape:transform-center-x="16.520486"
         inkscape:randomized="0"
         inkscape:rounded="0.08"
         inkscape:flatsided="true"
         sodipodi:arg2="-0.45471194"
         sodipodi:arg1="-1.5019095"
         sodipodi:r2="83.911888"
         sodipodi:r1="167.82378"
         sodipodi:cy="-2736.4419"
         sodipodi:cx="1795.6431"
         sodipodi:sides="3"
         id="path4466-0"
         style="color:#000000;clip-rule:nonzero;display:inline;overflow:visible;visibility:visible;opacity:1;isolation:auto;mix-blend-mode:normal;color-interpolation:sRGB;color-interpolation-filters:linearRGB;solid-color:#000000;solid-opacity:1;fill:#ff5555;fill-opacity:1;fill-rule:nonzero;stroke:#000000;stroke-width:1;stroke-linecap:butt;stroke-linejoin:miter;stroke-miterlimit:4;stroke-dasharray:none;stroke-dashoffset:0;stroke-opacity:1;color-rendering:auto;image-rendering:auto;shape-rendering:auto;text-rendering:auto;enable-background:accumulate"
         sodipodi:type="star"
         d="m 1807.1948,-2903.8676 c 23.1992,1.6006 140.6532,241.8519 127.6674,261.1426 -12.9858,19.2908 -279.7765,0.8833 -289.9899,-20.0081 -10.2134,-20.8914 139.1233,-242.7352 162.3225,-241.1345 z" />
      <path
         transform="rotate(17.2,2396.8948,-2836.2245)"
         inkscape:transform-center-y="15.760073"
         inkscape:transform-center-x="8.7261662"
         inkscape:randomized="0"
         inkscape:rounded="0.08"
         inkscape:flatsided="true"
         sodipodi:arg2="0.040877712"
         sodipodi:arg1="-1.0063198"
         sodipodi:r2="50.478493"
         sodipodi:r1="100.95699"
         sodipodi:cy="-2805.3894"
         sodipodi:cx="2447.7983"
         sodipodi:sides="3"
         id="path4483"
         style="color:#000000;clip-rule:nonzero;display:inline;overflow:visible;visibility:visible;opacity:1;isolation:auto;mix-blend-mode:normal;color-interpolation:sRGB;color-interpolation-filters:linearRGB;solid-color:#000000;solid-opacity:1;fill:#ffaaaa;fill-opacity:1;fill-rule:nonzero;stroke:#000000;stroke-width:1;stroke-linecap:butt;stroke-linejoin:miter;stroke-miterlimit:4;stroke-dasharray:none;stroke-dashoffset:0;stroke-opacity:1;color-rendering:auto;image-rendering:auto;shape-rendering:auto;text-rendering:auto;enable-background:accumulate"
         sodipodi:type="star"
         d="m 2501.8077,-2890.6848 c 11.8188,7.4837 5.2445,168.223 -7.146,174.7166 -12.3906,6.4935 -148.3077,-79.5696 -147.736,-93.5469 0.5717,-13.9774 143.0631,-88.6535 154.882,-81.1697 z" />
      <ellipse
         ry="390.83722"
         rx="394.25562"
         cy="-2524.425"
         cx="2135.3613"
         id="path4424"
         style="color:#000000;clip-rule:nonzero;display:inline;overflow:visible;visibility:visible;opacity:1;isolation:auto;mix-blend-mode:normal;color-interpolation:sRGB;color-interpolation-filters:linearRGB;solid-color:#000000;solid-opacity:1;fill:#ff8080;fill-opacity:1;fill-rule:nonzero;stroke:#000000;stroke-width:1;stroke-linecap:butt;stroke-linejoin:miter;stroke-miterlimit:4;stroke-dasharray:none;stroke-dashoffset:0;stroke-opacity:1;color-rendering:auto;image-rendering:auto;shape-rendering:auto;text-rendering:auto;enable-background:accumulate" />
      <ellipse
         ry="118.50458"
         rx="137.87552"
         cy="-2473.1489"
         cx="2136.5007"
         id="path4426"
         style="color:#000000;clip-rule:nonzero;display:inline;overflow:visible;visibility:visible;opacity:1;isolation:auto;mix-blend-mode:normal;color-interpolation:sRGB;color-interpolation-filters:linearRGB;solid-color:#000000;solid-opacity:1;fill:#ff5555;fill-opacity:1;fill-rule:nonzero;stroke:#000000;stroke-width:1;stroke-linecap:butt;stroke-linejoin:miter;stroke-miterlimit:4;stroke-dasharray:none;stroke-dashoffset:0;stroke-opacity:1;color-rendering:auto;image-rendering:auto;shape-rendering:auto;text-rendering:auto;enable-background:accumulate" />
      <ellipse
         ry="29.646214"
         rx="36.002815"
         cy="-2493.6421"
         cx="2080.2041"
         id="path4430"
         style="color:#000000;clip-rule:nonzero;display:inline;overflow:visible;visibility:visible;opacity:1;isolation:auto;mix-blend-mode:normal;color-interpolation:sRGB;color-interpolation-filters:linearRGB;solid-color:#000000;solid-opacity:1;fill:#1a1a1a;fill-opacity:1;fill-rule:nonzero;stroke:#000000;stroke-width:0.994367;stroke-linecap:butt;stroke-linejoin:miter;stroke-miterlimit:4;stroke-dasharray:none;stroke-dashoffset:0;stroke-opacity:1;color-rendering:auto;image-rendering:auto;shape-rendering:auto;text-rendering:auto;enable-background:accumulate" />
      <ellipse
         ry="29.646214"
         rx="36.002815"
         cy="-2495.9382"
         cx="2178.6609"
         id="path4430-1"
         style="color:#000000;clip-rule:nonzero;display:inline;overflow:visible;visibility:visible;opacity:1;isolation:auto;mix-blend-mode:normal;color-interpolation:sRGB;color-interpolation-filters:linearRGB;solid-color:#000000;solid-opacity:1;fill:#1a1a1a;fill-opacity:1;fill-rule:nonzero;stroke:#000000;stroke-width:0.994367;stroke-linecap:butt;stroke-linejoin:miter;stroke-miterlimit:4;stroke-dasharray:none;stroke-dashoffset:0;stroke-opacity:1;color-rendering:auto;image-rendering:auto;shape-rendering:auto;text-rendering:auto;enable-background:accumulate" />
      <ellipse
         ry="79.077087"
         rx="87.697517"
         cy="-2640.1968"
         cx="1983.7708"
         id="path4447"
         style="color:#000000;clip-rule:nonzero;display:inline;overflow:visible;visibility:visible;opacity:1;isolation:auto;mix-blend-mode:normal;color-interpolation:sRGB;color-interpolation-filters:linearRGB;solid-color:#000000;solid-opacity:1;fill:#ffffff;fill-opacity:1;fill-rule:nonzero;stroke:#000000;stroke-width:1;stroke-linecap:butt;stroke-linejoin:miter;stroke-miterlimit:4;stroke-dasharray:none;stroke-dashoffset:0;stroke-opacity:1;color-rendering:auto;image-rendering:auto;shape-rendering:auto;text-rendering:auto;enable-background:accumulate" />
      <ellipse
         ry="79.077087"
         rx="87.697517"
         cy="-2637.2324"
         cx="2294.8865"
         id="path4447-3"
         style="color:#000000;clip-rule:nonzero;display:inline;overflow:visible;visibility:visible;opacity:1;isolation:auto;mix-blend-mode:normal;color-interpolation:sRGB;color-interpolation-filters:linearRGB;solid-color:#000000;solid-opacity:1;fill:#ffffff;fill-opacity:1;fill-rule:nonzero;stroke:#000000;stroke-width:1;stroke-linecap:butt;stroke-linejoin:miter;stroke-miterlimit:4;stroke-dasharray:none;stroke-dashoffset:0;stroke-opacity:1;color-rendering:auto;image-rendering:auto;shape-rendering:auto;text-rendering:auto;enable-background:accumulate" />
      <ellipse
         ry="32.340874"
         rx="36.124264"
         cy="-2608.042"
         cx="1978.4535"
         id="path4500"
         style="color:#000000;clip-rule:nonzero;display:inline;overflow:visible;visibility:visible;opacity:1;isolation:auto;mix-blend-mode:normal;color-interpolation:sRGB;color-interpolation-filters:linearRGB;solid-color:#000000;solid-opacity:1;fill:#37abc8;fill-opacity:1;fill-rule:nonzero;stroke:#000000;stroke-width:1;stroke-linecap:butt;stroke-linejoin:miter;stroke-miterlimit:4;stroke-dasharray:none;stroke-dashoffset:0;stroke-opacity:1;color-rendering:auto;image-rendering:auto;shape-rendering:auto;text-rendering:auto;enable-background:accumulate" />
      <ellipse
         ry="32.340874"
         rx="36.124264"
         cy="-2612.1641"
         cx="2292.6079"
         id="path4500-8"
         style="color:#000000;clip-rule:nonzero;display:inline;overflow:visible;visibility:visible;opacity:1;isolation:auto;mix-blend-mode:normal;color-interpolation:sRGB;color-interpolation-filters:linearRGB;solid-color:#000000;solid-opacity:1;fill:#37abc8;fill-opacity:1;fill-rule:nonzero;stroke:#000000;stroke-width:1;stroke-linecap:butt;stroke-linejoin:miter;stroke-miterlimit:4;stroke-dasharray:none;stroke-dashoffset:0;stroke-opacity:1;color-rendering:auto;image-rendering:auto;shape-rendering:auto;text-rendering:auto;enable-background:accumulate" />
      <ellipse
         ry="12.150081"
         rx="12.51507"
         cy="-2603.0481"
         cx="1976.9753"
         id="path4500-7"
         style="color:#000000;clip-rule:nonzero;display:inline;overflow:visible;visibility:visible;opacity:1;isolation:auto;mix-blend-mode:normal;color-interpolation:sRGB;color-interpolation-filters:linearRGB;solid-color:#000000;solid-opacity:1;fill:#000000;fill-opacity:1;fill-rule:nonzero;stroke:#000000;stroke-width:0.36077;stroke-linecap:butt;stroke-linejoin:miter;stroke-miterlimit:4;stroke-dasharray:none;stroke-dashoffset:0;stroke-opacity:1;color-rendering:auto;image-rendering:auto;shape-rendering:auto;text-rendering:auto;enable-background:accumulate" />
      <ellipse
         ry="12.150081"
         rx="12.51507"
         cy="-2612.1638"
         cx="2290.3289"
         id="path4500-7-5"
         style="color:#000000;clip-rule:nonzero;display:inline;overflow:visible;visibility:visible;opacity:1;isolation:auto;mix-blend-mode:normal;color-interpolation:sRGB;color-interpolation-filters:linearRGB;solid-color:#000000;solid-opacity:1;fill:#000000;fill-opacity:1;fill-rule:nonzero;stroke:#000000;stroke-width:0.36077;stroke-linecap:butt;stroke-linejoin:miter;stroke-miterlimit:4;stroke-dasharray:none;stroke-dashoffset:0;stroke-opacity:1;color-rendering:auto;image-rendering:auto;shape-rendering:auto;text-rendering:auto;enable-background:accumulate" />
      <path
         inkscape:connector-curvature="0"
         d="m 2073.3611,-2911.6894 c 1.9424,-9.4908 5.9637,-18.3985 9.8419,-27.223 6.0681,-12.0423 13.9268,-23.2998 24.172,-32.1815 2.2269,-1.9305 4.6595,-3.6101 6.9892,-5.4151 12.1035,-8.3724 26.1377,-12.1692 40.7012,-13.1271 3.3084,-0.2177 6.6289,-0.1734 9.9433,-0.26 10.8607,0.8064 12.7133,0.6051 23.5127,2.7971 3.7904,0.7693 7.619,1.4855 11.2683,2.7666 8.3241,2.9223 16.5933,6.0664 24.578,9.8179 2.9677,1.3943 5.7272,3.3089 8.1239,5.5466 2.2428,2.094 3.7486,4.8588 5.6229,7.2882 0.8974,2.9334 2.2505,5.7645 2.6923,8.8001 1.7927,12.3174 -4.0052,26.8998 -12.3664,35.817 -2.1901,2.3358 -4.8829,4.1434 -7.3244,6.2151 -3.2129,1.4737 -6.294,3.2778 -9.6389,4.421 -9.1697,3.1338 -19.9974,4.1651 -29.5571,2.3161 -8.6769,-1.6782 -23.726,-10.354 -28.456,-12.6745 -1.3534,-1.9139 -2.9841,-3.6593 -4.0602,-5.7418 -3.1974,-6.1875 -3.8022,-13.3238 -0.7692,-19.6876 2.4552,-5.1514 4.167,-5.6444 8.5434,-9.0203 2.4002,-0.7914 4.7281,-1.8514 7.2008,-2.3743 5.8735,-1.242 12.9142,-1.2039 18.8115,-0.7768 11.7279,0.8492 23.0375,3.5937 34.4065,6.4062 17.8955,5.8487 6.7497,1.8968 33.0093,13.0002 0,0 -15.9487,-3.7637 -15.9487,-3.7637 v 0 c 10.11,3.3225 8.9519,2.9778 -3.3922,-1.2776 -11.2044,-2.8639 -22.327,-5.6278 -33.903,-6.5289 -5.7156,-0.445 -12.3735,-0.5055 -18.0829,0.5548 -2.2995,0.427 -4.4887,1.3156 -6.733,1.9735 -4.1155,2.9238 -5.8004,3.3521 -8.1376,8.0283 -2.9404,5.8829 -2.0914,12.5558 1.1594,18.1349 1.1202,1.9224 2.7777,3.4766 4.1666,5.2149 -3.1712,-0.768 -6.3354,-3.0425 -9.5136,-2.3041 -2.5765,0.5986 4.8572,2.1713 7.4293,2.7884 9.4013,2.2553 20.2473,1.526 29.401,-1.4203 3.2193,-1.0361 6.1845,-2.7388 9.2768,-4.1083 2.3964,-1.9557 5.0356,-3.647 7.1892,-5.8673 8.2211,-8.4756 13.789,-22.5101 11.6987,-34.3894 -0.5034,-2.861 -1.9042,-5.4891 -2.8563,-8.2337 -7.6473,-9.2083 -3.1582,-5.1711 -13.6142,-11.9459 -1.1634,-1.2193 6.397,2.0578 4.7373,1.7657 -3.8207,-0.6723 -7.4737,-2.1027 -11.2671,-2.9148 -10.6934,-2.2892 -12.2761,-2.0493 -22.9872,-2.8488 -3.2599,0.066 -6.5249,0 -9.7796,0.198 -14.2788,0.8543 -28.1704,4.4257 -40.1965,12.3721 -2.3003,1.7508 -4.704,3.3735 -6.9008,5.2525 -10.1207,8.6565 -17.7719,19.8106 -23.4328,31.7785 -3.653,8.6405 -7.7935,17.4671 -8.6674,26.912 0,0 -16.8904,-6.0809 -16.8904,-6.0809 z"
         id="path4560"
         style="color:#000000;clip-rule:nonzero;display:inline;overflow:visible;visibility:visible;opacity:1;isolation:auto;mix-blend-mode:normal;color-interpolation:sRGB;color-interpolation-filters:linearRGB;solid-color:#000000;solid-opacity:1;fill:#ff8080;fill-opacity:1;fill-rule:nonzero;stroke:#000000;stroke-width:1;stroke-linecap:butt;stroke-linejoin:miter;stroke-miterlimit:4;stroke-dasharray:none;stroke-dashoffset:0;stroke-opacity:1;color-rendering:auto;image-rendering:auto;shape-rendering:auto;text-rendering:auto;enable-background:accumulate" />
    </g>
  </g>
</svg>
