<?xml version="1.0" encoding="UTF-8" standalone="no"?>
<!-- Created with Inkscape (http://www.inkscape.org/) -->

<svg
   width="204mm"
   height="320mm"
   viewBox="0 0 204 320"
   version="1.1"
   id="svg1712"
   inkscape:version="1.1 (c68e22c387, 2021-05-23)"
   sodipodi:docname="baloon.svg"
   xmlns:inkscape="http://www.inkscape.org/namespaces/inkscape"
   xmlns:sodipodi="http://sodipodi.sourceforge.net/DTD/sodipodi-0.dtd"
   xmlns="http://www.w3.org/2000/svg"
   xmlns:svg="http://www.w3.org/2000/svg">
  <sodipodi:namedview
     id="namedview1714"
     pagecolor="#ffffff"
     bordercolor="#666666"
     borderopacity="1.0"
     inkscape:pageshadow="2"
     inkscape:pageopacity="0.0"
     inkscape:pagecheckerboard="0"
     inkscape:document-units="mm"
     showgrid="false"
     inkscape:zoom="0.25300224"
     inkscape:cx="199.60297"
     inkscape:cy="677.8596"
     inkscape:window-width="1366"
     inkscape:window-height="711"
     inkscape:window-x="0"
     inkscape:window-y="0"
     inkscape:window-maximized="1"
     inkscape:current-layer="layer1" />
  <defs
     id="defs1709">
    <filter
       inkscape:label="Basic Specular Bump"
       inkscape:menu="Bumps"
       inkscape:menu-tooltip="Specular emboss effect"
       style="color-interpolation-filters:sRGB"
       id="filter3647"
       x="0"
       y="0"
       width="1"
       height="1">
      <feColorMatrix
         in="SourceGraphic"
         type="luminanceToAlpha"
         result="result2"
         id="feColorMatrix3649" />
      <feSpecularLighting
         result="result10"
         specularExponent="15"
         surfaceScale="-15"
         specularConstant="1"
         id="feSpecularLighting3651">
        <feDistantLight
           azimuth="225"
           elevation="25"
           id="feDistantLight3653" />
      </feSpecularLighting>
      <feComposite
         k4="0"
         k1="0"
         in2="SourceGraphic"
         k3="1"
         k2="1"
         operator="arithmetic"
         result="result9"
         in="result10"
         id="feComposite3655" />
      <feComposite
         in="result9"
         operator="in"
         result="result7"
         in2="SourceGraphic"
         id="feComposite3657" />
    </filter>
  </defs>
  <g
     inkscape:label="Vrstva 1"
     inkscape:groupmode="layer"
     id="layer1">
    <g
       id="g3645"
       transform="matrix(0.25381913,0,0,0.24815992,-795.93101,784.97486)">
      <path
         inkscape:connector-curvature="0"
         id="path5502"
         d="m 3540.9626,-3157.7772 c -31.0961,-0.034 -64.9051,2.3979 -87.1061,6.8711 -28.6685,5.7762 -61.8897,15.8222 -83.0171,25.1055 l -13.7533,6.043 177.7496,0.057 177.7497,0.057 -9.5228,-4.7304 c -24.0785,-11.9593 -71.9176,-25.0062 -112.1519,-30.586 -13.6095,-1.8873 -31.2903,-2.7958 -49.9481,-2.8164 z m -186.6813,38.3672 -15.0565,7.959 c -35.5336,18.7829 -65.5421,40.7612 -94.7141,69.3711 -29.5904,29.0199 -50.1649,56.671 -68.8403,92.5156 -15.1132,29.0076 -24.5449,55.4665 -31.3709,88.0117 -2.5158,11.9948 -4.1813,22.1479 -5.2308,32.8106 -0.2083,0.06 -0.3152,0.1209 -0.3438,0.1875 -0.2243,0.5212 -0.3752,4.4284 -0.4685,10.1035 -0.4979,8.1908 -0.7078,17.0378 -0.7078,27.4844 0,9.4977 0.3506,18.784 1.0433,27.9121 0.1576,5.9811 0.3458,10.7909 0.5728,12.5351 5.4427,41.8163 16.5778,77.5512 35.7243,114.6426 9.5027,18.4091 24.6503,42.6356 34.3557,54.9473 1.599,2.0284 2.7018,3.3201 3.6965,4.2324 0.5108,0.5612 0.9586,1.0145 1.3052,1.2891 0.1394,0.1104 0.5563,0.2152 1.1068,0.3183 0.4958,0.2171 1.0227,0.4064 1.6406,0.5879 l 3.4899,1.0254 -2.6185,0.062 c -3.4442,0.08 -1.5128,1.4045 2.2442,1.5391 1.4928,0.053 1.9762,0.2298 1.123,0.4101 -3.5545,0.7509 -3.6035,0.872 -1.434,3.6328 4.8811,6.2114 13.9898,16.1262 22.6133,24.6172 5.0775,4.9993 9.0616,9.3529 8.8539,9.6738 -0.2079,0.3209 0.9467,2.1775 2.5653,4.125 1.6186,1.9476 3.8675,4.6661 4.9976,6.0411 7.2625,8.8363 103.926,121.2488 108.9219,126.6679 l 4.5005,4.8828 33.345,-0.416 c 18.34,-0.2286 75.0926,-0.5937 126.116,-0.8105 101.753,-0.4325 197.7526,-1.4688 203.2986,-2.1953 l 3.5433,-0.4649 40.6932,-63.2968 c 51.9094,-80.7439 56.8978,-88.5953 56.5148,-88.961 -0.1737,-0.1658 -5.5318,4.3635 -11.906,10.0645 -35.5763,31.8189 -60.0118,49.3332 -89.3955,64.0722 -8.7112,4.3695 -7.0055,3.2445 5.9837,-3.9453 27.1305,-15.0173 47.6647,-29.613 71.7554,-51.0019 13.1575,-11.682 34.108,-33.0107 34.108,-34.7246 0,-0.7154 0.5892,-1.3702 1.3093,-1.4532 0.7201,-0.083 -4.245,-0.3364 -11.0345,-0.5625 l -12.3459,-0.4101 12.0574,-0.1524 c 9.5475,-0.1201 11.7584,-0.2517 13.3544,-1.1777 l 0.7568,-0.01 1.8064,-2.4004 c 1.7338,-1.9472 4.2237,-4.9911 6.6773,-8.2246 40.0666,-52.8046 62.659,-105.6696 72.1092,-168.7304 1.0382,-6.9286 1.442,-10.8271 1.6039,-21.5782 1.0747,-15.6467 1.0643,-31.3811 -0.021,-47.0664 -0.098,-7.6302 -0.2386,-12.9113 -0.401,-13.289 -0.041,-0.097 -0.3308,-0.1833 -0.808,-0.2656 -4.0873,-37.5518 -14.3174,-74.5716 -30.5363,-109.0918 -34.0712,-72.5168 -97.167,-136.8487 -170.8803,-174.2266 l -14.3403,-7.2715 h -180.667 -180.667 z m 369.979,650.6465 c 0.066,-0.012 0.1005,-0.01 0.1005,0.01 0,0.1964 -2.0105,1.3255 -4.4677,2.5097 -3.9503,1.9037 -6.1219,2.69 -5.1962,1.8809 0.7147,-0.6246 8.5831,-4.2173 9.5638,-4.4004 z m -16.734,7.582 c 0.4117,0 -0.095,0.4581 -1.1229,1.0196 -1.0288,0.5614 -2.207,1.0214 -2.6186,1.0214 -0.4113,0 0.095,-0.46 1.123,-1.0214 1.0289,-0.5615 2.2071,-1.0196 2.6185,-1.0196 z m -8.2298,3.541 c 0.4116,0 0.2429,0.3126 -0.3743,0.6934 -0.6172,0.3809 -1.4584,0.6914 -1.8698,0.6914 -0.4114,0 -0.2429,-0.3105 0.3744,-0.6914 0.6172,-0.3808 1.4583,-0.6934 1.8697,-0.6934 z m -72.2585,22.9239 c 0.2599,0.01 0.4832,0.077 0.6074,0.1953 0.2487,0.2373 -0.1932,0.406 -0.9819,0.375 -0.8715,-0.034 -1.0488,-0.2037 -0.4519,-0.4317 0.27,-0.1033 0.5665,-0.1488 0.8264,-0.1386 z m -3.6783,0.7187 c 0.3392,0 0.6777,0.049 0.935,0.1485 0.5142,0.1982 0.095,0.3613 -0.935,0.3613 -1.0283,0 -1.4492,-0.1631 -0.9348,-0.3613 0.2572,-0.099 0.5958,-0.1485 0.9348,-0.1485 z m -2.7554,0.8555 c 0.1622,-0.01 0.2571,0 0.2782,0.022 0.3957,0.3779 -13.8812,2.93 -26.3264,4.707 -5.3491,0.7638 -12.2505,1.5573 -15.3367,1.7637 -3.086,0.2065 0.1658,-0.3897 7.2275,-1.3262 7.0618,-0.9366 17.6303,-2.5434 23.4848,-3.5703 5.1227,-0.8986 9.5364,-1.5537 10.6726,-1.5957 z m -51.1735,6.998 c 0.26,0.01 0.4832,0.075 0.6075,0.1934 v 0 c 0.2486,0.2373 -0.1934,0.406 -0.982,0.375 -0.8715,-0.034 -1.0488,-0.2036 -0.4519,-0.4316 0.2699,-0.1034 0.5665,-0.1488 0.8264,-0.1387 z"
         style="fill:#ffff00" />
      <path
         inkscape:connector-curvature="0"
         id="path3718-7"
         d="m 3362.4386,-2445.5083 21.4599,262.1126 17.7622,-2.279 -21.598,-259.8336 h -15.6098 -2.0142 z"
         style="fill:#552200;fill-rule:evenodd;stroke:#000000;stroke-width:1.11098px;stroke-linecap:butt;stroke-linejoin:miter;stroke-opacity:1" />
      <path
         inkscape:connector-curvature="0"
         id="path3718"
         d="m 3713.8332,-2186.2243 25.7462,-243.9689 -18.1943,2.1212 -25.1972,241.8477 h 15.6287 z"
         style="fill:#552200;fill-rule:evenodd;stroke:#000000;stroke-width:1.07248px;stroke-linecap:butt;stroke-linejoin:miter;stroke-opacity:1" />
      <g
         id="g3724">
        <rect
           y="-2186.1919"
           x="3382.8574"
           height="307.12546"
           width="331.42856"
           id="rect5484"
           style="fill:#ff6600"
           transform="translate(-7.9755418,-4.8136656)" />
        <path
           style="fill:#ff0000;filter:url(#filter3647)"
           d="m 3534.9951,-3159.4985 c -8.7233,0.01 14.6495,749.7101 6.7038,750.0546 -14.1674,0.6143 -60.3556,-748.3809 -63.1335,-748.3379 -2.778,0.043 -5.2829,0.385 -5.5664,0.7579 -0.2835,0.3729 -3.4666,0.932 -7.0722,1.2421 -3.6056,0.3102 -11.7827,1.7278 -18.1719,3.1524 -6.3892,1.4245 -12.7537,2.684 -14.1426,2.7988 -1.389,0.1148 -2.7515,0.4765 -3.0293,0.8028 -0.8084,0.9495 -16.391,4.9409 -17.2402,4.416 -0.4238,-0.2619 128.3627,743.4814 128.1763,743.9542 -0.4655,1.1803 -148.3755,-736.2569 -149.4595,-736.9269 -0.4799,-0.2965 -0.8731,-0.093 -0.8731,0.4512 0,0.8994 -5.1051,2.5404 -6.6894,2.1504 -0.3638,-0.09 -0.9793,0.3534 -1.3692,0.9844 -0.3899,0.6308 -1.6905,1.2205 -2.8906,1.3105 -1.2,0.09 -2.1836,0.4383 -2.1836,0.7734 0,0.7626 -10.9772,5.3594 -12.7988,5.3594 -0.7381,0 -1.3418,0.3089 -1.3418,0.6875 0,0.7292 -6.5317,3.7854 -9.0918,4.2539 -0.187,0.034 -0.3778,0.083 -0.5644,0.1367 h -0.033 l -0.025,0.014 c -0.6227,0.1872 -1.1875,0.4649 -1.3965,0.7031 -0.055,0.062 -0.5892,0.4003 -1.1563,0.7578 l 188.5313,730.1239 c 27.818,107.7305 -198.5805,-746.6894 -269.8047,-672.8841 -68.9482,62.4806 -100.987,128.8924 -99.4762,139.6336 l -17.069,57.3309 c -0.2047,0.5415 -2.0959,10.1704 -2.1345,11.2274 -0.2051,1.343 -0.2905,2.2711 -0.5904,4.1487 -0.42,0.2265 -0.8567,2.3956 -0.8764,4.6052 0,0.5479 -0.048,1.5927 -0.1133,2.8769 -3.5871,31.4198 -3.7112,74.5997 0.07,102.7364 0.01,0.061 0.015,0.139 0.023,0.1992 0.036,0.2652 0.086,0.5796 0.125,0.8574 0.2417,1.7285 0.4934,3.4171 0.7656,5.0195 0.026,0.1554 0.057,0.3114 0.084,0.4668 0.4012,2.4011 0.8245,4.7497 1.1914,6.5332 0.082,0.3998 0.1429,0.7204 0.2226,1.1133 0.09,0.455 0.1794,0.9099 0.2715,1.3653 0.5935,2.9705 1.1096,5.6623 1.2989,6.8867 0.1144,0.741 0.4098,1.6852 0.6953,2.2793 1.0606,4.5599 2.2268,9.1328 3.4922,13.709 0.01,0.043 0.02,0.1163 0.025,0.1562 0.081,0.6572 0.4791,2.0165 0.9551,3.3359 0.3589,1.248 0.7282,2.4947 1.1016,3.7422 0.043,0.4473 0.041,0.8259 -0.066,1 -0.2852,0.4615 -0.1761,0.9933 0.2441,1.1797 0.192,0.085 0.7123,1.2248 1.3828,2.9102 1.6051,5.0901 3.3345,10.1673 5.17,15.2187 0.1723,0.6702 0.2734,1.165 0.2734,1.4024 0,0.5556 0.2541,1.2378 0.5664,1.5156 0.1324,0.1178 0.4218,0.685 0.7656,1.4199 1.2799,3.3926 2.6107,6.7691 3.9883,10.127 0.2147,0.658 0.3871,1.2294 0.4512,1.5605 0.1318,0.6817 0.6398,1.6663 1.2051,2.4141 0.5325,1.2573 1.0714,2.5109 1.6171,3.7617 0.013,0.4799 -0.018,0.9992 -0.094,1.5645 -0.047,0.3546 0.3252,0.9218 0.8281,1.2617 0.2456,0.166 1.0517,1.5654 2.0781,3.4726 2.8145,6.1427 5.7841,12.1909 8.8985,18.1114 0.9832,2.1968 1.628,3.7836 1.5742,4.0351 -0.089,0.4167 0.3199,0.7578 0.9082,0.7578 0.041,0 0.065,0.017 0.1016,0.022 0.1418,0.2599 0.2853,0.518 0.4277,0.7774 -0.027,0.07 -0.038,0.1364 -0.084,0.2109 -0.3434,0.5556 -0.216,1.0098 0.2832,1.0098 0.2081,0 0.5442,0.3287 0.9238,0.8203 0.6871,1.232 1.3808,2.4549 2.0801,3.6738 0.2389,0.5567 0.4452,1.0995 0.5684,1.5684 0.073,0.2777 0.7162,1.1861 1.4297,2.0195 0.139,0.1623 0.2598,0.3273 0.3789,0.4902 0.1957,0.3304 0.3913,0.6609 0.5879,0.9903 0.1,0.2357 0.1603,0.4394 0.1172,0.541 -0.118,0.2778 0.672,1.5425 1.7578,2.8105 0.2642,0.3086 0.5062,0.6188 0.7207,0.918 0.2095,0.3392 0.4204,0.6757 0.6308,1.0137 0.243,0.461 0.3699,0.8312 0.2852,0.9843 -0.1864,0.3365 0.1055,0.8906 0.6504,1.2305 0.2327,0.1452 1.2553,1.4893 2.6113,3.3613 0.9171,1.4071 1.8402,2.8054 2.7734,4.1875 17.0714,25.2836 20.5267,29.8101 35.4551,46.4668 7.469,8.3338 16.7124,19.2439 20.541,24.2442 9.2859,12.1278 84.9231,104.9226 97.8379,120.0312 l 10.209,11.9434 173.4981,-1.2852 c 122.5661,-0.9075 174.2894,-1.9428 176.2011,-3.5293 3.6796,-3.0538 89.9822,-144.41 90.5567,-148.3242 0.2121,-1.4453 4.954,-8.3387 11.1133,-16.2852 1.0031,-1.1666 2.1076,-2.4146 3.623,-4.08 1.1375,-1.2501 2.0627,-2.505 2.0527,-2.7891 0,-0.1106 0.1361,-0.3868 0.3438,-0.7422 3.2242,-4.0782 6.3273,-8.1396 9.3164,-12.1933 1.3633,-1.5902 2.4143,-2.711 2.6582,-2.711 0.5211,0 0.6642,-0.4561 0.3184,-1.0156 -0.046,-0.074 -0.076,-0.1516 -0.096,-0.2305 0.3275,-0.455 0.6598,-0.9103 0.9844,-1.3652 0.022,-0.01 0.04,-0.021 0.062,-0.029 0.8686,-0.3333 1.5801,-1.0432 1.5801,-1.5781 0,-0.2947 0.3751,-1.0715 0.9492,-2.0723 1.6869,-2.4204 3.3314,-4.8413 4.9395,-7.2637 0.6139,-0.7616 1.1279,-1.3258 1.375,-1.4277 0.449,-0.1852 0.8164,-0.9805 0.8164,-1.7676 0,-0.064 0.019,-0.1196 0.025,-0.1816 0.2638,-0.4068 0.5254,-0.8137 0.7871,-1.2207 0.064,-0.018 0.1298,-0.029 0.1972,-0.029 0.5556,0 1.0118,-0.6498 1.0118,-1.4434 0,-0.162 0.04,-0.3535 0.088,-0.5468 0.6147,-0.9702 1.2175,-1.9426 1.8203,-2.9141 0.2972,-0.4003 0.5847,-0.8717 0.8496,-1.3672 0.7812,-1.272 1.5535,-2.5452 2.3144,-3.8203 0.015,0 0.031,-0.01 0.045,-0.01 0.5182,0 0.9433,-0.6496 0.9433,-1.4433 0,-0.091 0.032,-0.2047 0.047,-0.3067 7.1817,-12.1965 13.4608,-24.5561 18.9492,-37.3398 0.384,-0.7703 1.1697,-2.3694 1.2754,-2.5664 0.5176,-0.9647 0.9414,-2.1591 0.9414,-2.6543 0,-0.032 0.027,-0.1233 0.033,-0.168 3.6908,-9.035 7.0083,-18.2954 9.9941,-27.8672 0.3132,-0.5464 0.6165,-1.2583 0.6895,-1.6484 0.078,-0.4167 0.2513,-1.0989 0.3848,-1.5156 0.1121,-0.3498 0.2456,-0.9492 0.3379,-1.4668 1.1277,-3.787 2.2049,-7.6253 3.2363,-11.5176 0.2146,-0.4855 0.4066,-0.8612 0.5332,-0.9395 0.4755,-0.2938 0.6273,-1.1566 0.3359,-1.916 -0.028,-0.073 -0.046,-0.1476 -0.064,-0.2226 0.1425,-0.5552 0.2812,-1.1145 0.4218,-1.6719 0.064,-0.062 0.1325,-0.1161 0.2071,-0.1621 0.6024,-0.3724 0.8352,-1.1 0.5156,-1.6172 -0.076,-0.1233 -0.1286,-0.2736 -0.1621,-0.4356 0.012,-0.047 0.024,-0.093 0.035,-0.1406 0.1765,-0.7165 0.3367,-1.3998 0.5079,-2.1055 0.1998,-0.5619 0.3906,-1.3666 0.5449,-2.2675 0.5637,-2.3671 1.1074,-4.696 1.6113,-6.9571 0.3053,-0.6706 0.5805,-1.5194 0.6777,-2.1484 0.1302,-0.8432 0.464,-2.6696 0.7422,-4.0586 0.3237,-1.616 0.7953,-4.2428 1.2871,-7.0527 3.6525,-19.7467 4.9766,-37.1627 4.9766,-60.7149 0,-4.1353 -0.087,-8.2928 -0.2559,-12.4668 -0.1236,-12.3974 -0.6533,-21.7684 -1.621,-21.7812 v 0 c -0.2954,-2.7503 -0.6145,-5.5036 -0.9785,-8.2597 -0.091,-1 -0.196,-1.9933 -0.3183,-2.8614 -0.3524,-2.5001 -0.7673,-5.6814 -0.9219,-7.0703 -0.1375,-1.2349 -0.5132,-2.8631 -0.8789,-3.9004 -0.1526,-0.8834 -0.3073,-1.767 -0.4668,-2.6504 0.022,-0.382 0.07,-0.7452 0.1777,-1.0254 0.3198,-0.8333 0.1995,-1.5156 -0.2675,-1.5156 -0.1425,0 -0.3064,-0.195 -0.4747,-0.5117 -19.5621,-124.4158 -110.9615,-202.9427 -144.0168,-231.4582 -45.5777,-39.3182 -174.0887,576.5589 -200.7923,685.3939 l 142.2291,-718.7287 h -1.2579 c -0.7899,-0.3384 -1.4595,-0.5967 -1.8769,-0.6953 -1.4,-0.3305 -3.4622,-1.4145 -4.584,-2.4082 -1.1218,-0.9938 -2.538,-1.904 -3.1465,-2.0215 -0.6084,-0.1174 -3.6675,-1.3456 -6.7988,-2.7304 -3.1314,-1.3848 -6.0262,-2.5841 -6.4316,-2.6641 -0.4053,-0.08 -1.6467,-0.6468 -2.7579,-1.2598 -1.1112,-0.6129 -2.4736,-1.2059 -3.0293,-1.3164 -0.5555,-0.1104 -2.3742,-0.7706 -4.041,-1.4668 -1.6667,-0.6961 -3.4854,-1.3678 -4.041,-1.4941 -0.5556,-0.1262 -6.2377,-1.8622 -12.6269,-3.8574 -12.8361,-4.0084 -95.1168,738.1227 -102.4107,737.123 -2.5656,-0.3517 47.8638,-750.4873 47.8638,-750.8711 0,-0.3839 -1.3645,-0.4986 -3.0313,-0.2539 -1.677,0.2461 -3.0312,-0.014 -3.0312,-0.584 0,-0.5668 -0.901,-0.7943 -2.0039,-0.5058 -1.1028,0.2884 -2.8086,0.1941 -3.7891,-0.209 -0.9806,-0.4031 -3.3738,-0.8852 -5.3183,-1.0703 -1.9446,-0.1852 -4.2174,-0.41 -5.0508,-0.5 -7.5551,-0.8155 -21.4591,-1.2497 -35.9981,-1.2363 z"
           id="path3468"
           inkscape:connector-curvature="0"
           sodipodi:nodetypes="cscsccsccccscccsssccccccscccccccccccccccccccccccccscccccccscccscccscccccccccccccsssscscccscccsccccscccsccssccccssccssccccccccccccccccccccscccccccccscsccccccccccccscscscccccc"
           transform="matrix(1.0233405,0,0,0.96970784,-73.754198,-71.786958)" />
      </g>
      <path
         id="rect3659"
         transform="translate(0,-4616.9292)"
         d="m 3382.8574,2430.7383 v 38.3906 40.4063 28.2832 183.8476 16.1973 h 331.4278 v -38.4199 -230.3145 -38.3906 h -308.0508 z m 23.377,38.3906 h 44.4472 v 40.4063 h -44.4472 z m 62.6289,0 h 58.5898 v 40.4063 h -58.5898 z m 80.8125,0 h 64.6504 v 40.4063 h -64.6504 z m 86.873,0 h 44.4473 v 40.4063 h -44.4473 z m -230.3144,68.6895 h 44.4472 v 161.625 h -44.4472 z m 62.6289,0 h 58.5898 v 161.625 h -58.5898 z m 80.8125,0 h 64.6504 v 161.625 h -64.6504 z m 86.873,0 h 44.4473 v 161.625 h -44.4473 z"
         style="fill:#552200"
         inkscape:connector-curvature="0" />
    </g>
  </g>
</svg>
