<?xml version="1.0" encoding="UTF-8" standalone="no"?>
<svg
   viewBox="0 0 297 297"
   version="1.1"
   width="297"
   height="297"
   id="svg13"
   sodipodi:docname="bubble.svg"
   inkscape:version="1.1 (c68e22c387, 2021-05-23)"
   inkscape:export-filename="D:\Uceni\vspj\2sem\xPDA\Projekt\ratkov03\icon\bubble.png"
   inkscape:export-xdpi="256"
   inkscape:export-ydpi="256"
   xmlns:inkscape="http://www.inkscape.org/namespaces/inkscape"
   xmlns:sodipodi="http://sodipodi.sourceforge.net/DTD/sodipodi-0.dtd"
   xmlns="http://www.w3.org/2000/svg"
   xmlns:svg="http://www.w3.org/2000/svg"
   xmlns:rdf="http://www.w3.org/1999/02/22-rdf-syntax-ns#"
   xmlns:cc="http://creativecommons.org/ns#"
   xmlns:dc="http://purl.org/dc/elements/1.1/">
  <metadata
     id="metadata19">
    <rdf:RDF>
      <cc:Work
         rdf:about="">
        <dc:format>image/svg+xml</dc:format>
        <dc:type
           rdf:resource="http://purl.org/dc/dcmitype/StillImage" />
      </cc:Work>
    </rdf:RDF>
  </metadata>
  <defs
     id="defs17" />
  <sodipodi:namedview
     pagecolor="#ffffff"
     bordercolor="#666666"
     borderopacity="1"
     objecttolerance="10"
     gridtolerance="10"
     guidetolerance="10"
     inkscape:pageopacity="0"
     inkscape:pageshadow="2"
     inkscape:window-width="1366"
     inkscape:window-height="711"
     id="namedview15"
     showgrid="false"
     inkscape:zoom="0.61458333"
     inkscape:cx="139.93221"
     inkscape:cy="152.1356"
     inkscape:window-x="0"
     inkscape:window-y="0"
     inkscape:window-maximized="1"
     inkscape:current-layer="svg13"
     inkscape:pagecheckerboard="0"
     width="297px" />
  <circle
     style="fill:#2a7fff;stroke-width:2.99839"
     id="path21-9"
     cx="149.98959"
     cy="259.42178"
     r="37.04509" />
  <path
     style="fill:#d5e5ff;stroke-width:4.76663"
     d="m 135.89759,234.05025 a 7.5408154,7.8835791 0 0 0 -5.93716,3.02992 7.5408154,7.8835791 0 0 0 -3.8886,3.65553 7.5408154,7.8835791 0 0 0 -3.70458,5.49555 7.5408154,7.8835791 0 0 0 -1.3003,2.47791 7.5408154,7.8835791 0 0 0 -0.58881,1.66829 7.5408154,7.8835791 0 0 0 -0.0126,0.0245 7.5408154,7.8835791 0 0 0 -0.90774,3.76592 7.5408154,7.8835791 0 0 0 7.54412,7.87533 7.5408154,7.8835791 0 0 0 6.57504,-4.04807 7.5408154,7.8835791 0 0 0 0.0245,-0.0126 7.5408154,7.8835791 0 0 0 2.09763,-3.94993 7.5408154,7.8835791 0 0 0 1.69283,-3.12805 7.5408154,7.8835791 0 0 0 2.17124,-2.1467 7.5408154,7.8835791 0 0 0 3.77819,-6.82037 7.5408154,7.8835791 0 0 0 -7.54412,-7.8876 z"
     id="path61"
     inkscape:connector-curvature="0" />
  <ellipse
     style="fill:#80b3ff;stroke-width:7.01792"
     id="path21-9-4-0"
     cx="198.00824"
     cy="90.840622"
     rx="84.918419"
     ry="88.531487" />
  <circle
     style="fill:#2a7fff;stroke-width:5.63034"
     id="path21-9-4"
     cx="86.494263"
     cy="146.34314"
     r="69.56282" />
  <path
     style="fill:#d5e5ff;stroke-width:11.1565"
     d="m 172.93126,19.367759 a 17.285802,18.84042 0 0 0 -13.60973,7.240984 17.285802,18.84042 0 0 0 -8.91383,8.736092 17.285802,18.84042 0 0 0 -8.49202,13.13345 17.285802,18.84042 0 0 0 -2.98066,5.921768 17.285802,18.84042 0 0 0 -1.34972,3.986946 17.285802,18.84042 0 0 0 -0.0289,0.05841 17.285802,18.84042 0 0 0 -2.08082,8.99992 17.285802,18.84042 0 0 0 17.29337,18.820703 17.285802,18.84042 0 0 0 15.07195,-9.674197 17.285802,18.84042 0 0 0 0.0559,-0.03015 17.285802,18.84042 0 0 0 4.80839,-9.43966 17.285802,18.84042 0 0 0 3.88048,-7.475511 17.285802,18.84042 0 0 0 4.97763,-5.129714 17.285802,18.84042 0 0 0 8.66075,-16.299532 17.285802,18.84042 0 0 0 -17.29338,-18.850022 z"
     id="path61-8-9"
     inkscape:connector-curvature="0" />
  <path
     style="fill:#d5e5ff;stroke-width:8.95072"
     d="m 61.83896,93.281192 a 14.160052,14.803689 0 0 0 -11.148718,5.689539 14.160052,14.803689 0 0 0 -7.301958,6.864309 14.160052,14.803689 0 0 0 -6.95643,10.31949 14.160052,14.803689 0 0 0 -2.441674,4.65297 14.160052,14.803689 0 0 0 -1.105656,3.13271 14.160052,14.803689 0 0 0 -0.02387,0.0459 14.160052,14.803689 0 0 0 -1.704551,7.07161 14.160052,14.803689 0 0 0 14.166253,14.78819 14.160052,14.803689 0 0 0 12.346523,-7.60141 14.160052,14.803689 0 0 0 0.04585,-0.0239 14.160052,14.803689 0 0 0 3.938905,-7.41712 14.160052,14.803689 0 0 0 3.17878,-5.87382 14.160052,14.803689 0 0 0 4.077538,-4.03063 14.160052,14.803689 0 0 0 7.094641,-12.80721 14.160052,14.803689 0 0 0 -14.166258,-14.811236 z"
     id="path61-8"
     inkscape:connector-curvature="0" />
</svg>
