<?xml version="1.0" encoding="UTF-8" standalone="no"?>
<!-- Created with Inkscape (http://www.inkscape.org/) -->

<svg
   width="282mm"
   height="297mm"
   viewBox="0 0 282 297"
   version="1.1"
   id="svg608"
   inkscape:version="1.1 (c68e22c387, 2021-05-23)"
   sodipodi:docname="cherry.svg"
   xmlns:inkscape="http://www.inkscape.org/namespaces/inkscape"
   xmlns:sodipodi="http://sodipodi.sourceforge.net/DTD/sodipodi-0.dtd"
   xmlns="http://www.w3.org/2000/svg"
   xmlns:svg="http://www.w3.org/2000/svg">
  <sodipodi:namedview
     id="namedview610"
     pagecolor="#ffffff"
     bordercolor="#666666"
     borderopacity="1.0"
     inkscape:pageshadow="2"
     inkscape:pageopacity="0.0"
     inkscape:pagecheckerboard="0"
     inkscape:document-units="mm"
     showgrid="false"
     inkscape:zoom="0.12650112"
     inkscape:cx="620.54787"
     inkscape:cy="1173.9027"
     inkscape:window-width="1366"
     inkscape:window-height="711"
     inkscape:window-x="0"
     inkscape:window-y="0"
     inkscape:window-maximized="1"
     inkscape:current-layer="layer1" />
  <defs
     id="defs605" />
  <g
     inkscape:label="Vrstva 1"
     inkscape:groupmode="layer"
     id="layer1">
    <g
       id="g3652"
       transform="matrix(0.28222223,0,0,0.28222223,-40.990084,444.0452)">
      <path
         id="path4081"
         transform="translate(0,-4616.9292)"
         d="M 383.85742,3560.0938 A 222.23357,244.45691 0 0 0 161.625,3804.5488 222.23357,244.45691 0 0 0 383.85742,4049.0059 222.23357,244.45691 0 0 0 606.0918,3804.5488 222.23357,244.45691 0 0 0 383.85742,3560.0938 Z m 545.48242,46.4667 a 222.23357,244.45691 0 0 0 -222.23242,244.4571 222.23357,244.45691 0 0 0 222.23242,244.457 222.23357,244.45691 0 0 0 222.23436,-244.457 222.23357,244.45691 0 0 0 -222.23436,-244.4571 z"
         style="fill:#ff0000"
         inkscape:connector-curvature="0" />
      <path
         id="path4114"
         transform="translate(0,-4616.9292)"
         d="m 729.27734,3175.0527 c -3.9656,0.9422 -7.94148,1.876 -11.71289,3.4688 -17.66712,6.2969 -35.64572,12.0718 -52.32422,20.7539 -22.91463,10.4691 -45.84698,20.8714 -67.71289,33.4512 -19.90102,11.4057 -39.92844,22.5934 -59.70312,34.2168 -20.37629,11.977 -38.17609,28.1795 -57.91406,41.1054 -25.17091,20.056 -47.62758,43.3053 -67.93164,68.2735 -21.21436,27.3351 -41.54182,55.2321 -56.17969,86.7968 -19.10916,35.8326 -34.51089,73.3975 -43.46289,113.1446 -9.07886,41.2995 -18.18519,82.8536 -19.48047,125.2812 l 52.70703,-26.8554 c -3.52215,-41.1367 6.03517,-81.8601 15.04883,-121.7051 9.77921,-39.7141 26.43543,-76.9284 46,-112.6602 14.68886,-31.3748 35.42108,-58.8565 56.63086,-85.9824 20.64997,-24.6589 43.40004,-47.4913 68.83203,-67.1719 14.6154,-9.9643 28.74876,-20.6432 43.29687,-30.707 14.68769,-7.5613 29.65599,-14.5573 44.72657,-21.3555 16.33998,-8.4104 33.65731,-14.5726 51.03515,-20.4238 1.28111,-0.4379 2.56888,-0.8481 3.85742,-1.2598 l -0.76367,0.5547 c 22.05446,1.0322 35.03161,10.3869 51.41211,24.3262 31.11157,31.0087 51.59149,70.2772 72.78906,108.25 24.75234,42.5764 43.17649,88.3036 62.2461,133.5762 15.4121,39.0575 29.64928,78.5908 39.95117,119.3222 4.72466,19.2673 6.55574,39.0116 6.98828,58.791 -0.32921,12.3593 1.20846,25.0091 -1.01562,37.2227 l 52.97461,-26.3203 c 0.30345,-12.524 0.0776,-25.0504 -0.0215,-37.5762 -0.83684,-20.0312 -3.61419,-39.7625 -9.47266,-59.0234 -12.17797,-40.2807 -27.5303,-79.4885 -41.99414,-118.9844 -18.89063,-45.569 -39.48544,-90.4285 -63.05273,-133.7969 -21.12942,-38.6463 -41.52624,-78.4484 -71.39844,-111.2519 -6.25277,-5.8255 -14.43198,-13.9906 -21.72265,-18.7969 -8.42257,-5.5525 -18.61575,-7.5935 -28.14258,-10.4473 l 5.50976,-4.2168 z"
         style="fill:#803300"
         inkscape:connector-curvature="0" />
      <ellipse
         ry="102.62946"
         rx="58.588848"
         cy="-767.64557"
         cx="263.67953"
         id="path4132"
         style="fill:#ffffff" />
      <ellipse
         ry="81.445992"
         rx="38.385796"
         cy="-723.54553"
         cx="1084.27"
         id="path4132-2"
         style="fill:#ffffff" />
      <path
         id="path4164"
         transform="translate(0,-4616.9292)"
         d="m 644.17969,3058.791 a 90.604668,173.75456 44.200001 0 0 -143.44922,76.5 90.604668,173.75456 44.200001 0 0 -56.18164,187.7344 90.604668,173.75456 44.200001 0 0 152.00586,-31.043 90.604668,240.42464 0 0 0 -0.25586,13.5528 90.604668,240.42464 0 0 0 90.60547,240.4238 90.604668,240.42464 0 0 0 76.44922,-111.9024 240.42464,90.604668 65.600001 0 0 121.75586,78.1309 240.42464,90.604668 65.600001 0 0 -16.8086,-256.3789 240.42464,90.604668 65.600001 0 0 -160.78125,-184.1348 90.604668,240.42464 0 0 0 -20.61523,-6.5644 90.604668,240.42464 0 0 0 -9.82813,1.7031 90.604668,173.75456 44.200001 0 0 -32.89648,-8.0215 z"
         style="fill:#008000"
         inkscape:connector-curvature="0" />
    </g>
  </g>
</svg>
