<?xml version="1.0" encoding="UTF-8" standalone="no"?>
<!-- Created with Inkscape (http://www.inkscape.org/) -->

<svg
   width="334mm"
   height="297mm"
   viewBox="0 0 334 297"
   version="1.1"
   id="svg2454"
   inkscape:version="1.1 (c68e22c387, 2021-05-23)"
   sodipodi:docname="cloud.svg"
   xmlns:inkscape="http://www.inkscape.org/namespaces/inkscape"
   xmlns:sodipodi="http://sodipodi.sourceforge.net/DTD/sodipodi-0.dtd"
   xmlns="http://www.w3.org/2000/svg"
   xmlns:svg="http://www.w3.org/2000/svg">
  <sodipodi:namedview
     id="namedview2456"
     pagecolor="#ffffff"
     bordercolor="#666666"
     borderopacity="1.0"
     inkscape:pageshadow="2"
     inkscape:pageopacity="0.0"
     inkscape:pagecheckerboard="0"
     inkscape:document-units="mm"
     showgrid="false"
     inkscape:zoom="0.25300224"
     inkscape:cx="602.76145"
     inkscape:cy="622.52412"
     inkscape:window-width="1366"
     inkscape:window-height="711"
     inkscape:window-x="0"
     inkscape:window-y="0"
     inkscape:window-maximized="1"
     inkscape:current-layer="layer1" />
  <defs
     id="defs2451" />
  <g
     inkscape:label="Vrstva 1"
     inkscape:groupmode="layer"
     id="layer1">
    <path
       inkscape:connector-curvature="0"
       style="fill:#0000ff;stroke-width:0.282222"
       d="M 168.95401,-0.35076635 A 96.804014,70.15406 0 0 0 119.75088,9.4817997 77.247619,42.862718 0 0 0 116.66847,9.3963707 77.247619,42.862718 0 0 0 39.486195,51.53898 96.804014,60.777839 0 0 0 2.8700901,99.140275 96.804014,60.777839 0 0 0 48.826537,150.74009 c -0.913102,3.63502 -1.571498,14.40279 -1.571498,27.192 v 19.66186 c 0,15.7938 1.004542,28.50885 2.252275,28.50885 1.247704,0 2.252246,-12.71505 2.252246,-28.50885 v -19.66186 c 0,-12.21873 -0.601416,-22.58879 -1.451356,-26.66007 a 96.804014,60.777839 0 0 0 43.150793,8.45067 96.804014,66.805414 0 0 0 80.373253,29.66364 96.804014,66.805414 0 0 0 3.078,-0.10913 v 14.40216 c 0,15.79381 1.00454,28.50885 2.25227,28.50885 1.24771,0 2.25225,-12.71504 2.25225,-28.50885 v -14.56255 a 96.804014,66.805414 0 0 0 79.26477,-37.21422 96.804014,60.108111 0 0 0 4.74872,-0.90068 c -0.83975,4.13492 -1.43205,14.43899 -1.43205,26.56527 v 19.66132 c 0,15.7938 1.00452,28.50885 2.25225,28.50885 1.24773,0 2.25227,-12.71505 2.25227,-28.50885 v -19.66132 c 0,-12.42727 -0.62193,-22.94397 -1.4949,-26.86457 A 96.804014,60.108111 0 0 0 333.86936,93.667252 96.804014,60.108111 0 0 0 252.38375,34.390113 96.804014,70.15406 0 0 0 168.95401,-0.35076635 Z M 100.1403,170.02326 c -1.247733,0 -2.252283,12.71505 -2.252283,28.50885 v 19.66186 c 0,15.7938 1.00455,28.50828 2.252283,28.50828 1.2477,0 2.25225,-12.71448 2.25225,-28.50828 v -19.66186 c 0,-15.7938 -1.00455,-28.50885 -2.25225,-28.50885 z m 191.91112,20.96547 c -1.24774,0 -2.25228,12.71448 -2.25228,28.50832 v 19.66183 c 0,15.7938 1.00454,28.50831 2.25228,28.50831 1.2477,0 2.25224,-12.71451 2.25224,-28.50831 v -19.66183 c 0,-15.79384 -1.00454,-28.50832 -2.25224,-28.50832 z m -67.73334,9.67602 c -1.24773,0 -2.25227,12.71507 -2.25227,28.50888 v 19.66129 c 0,15.79381 1.00454,28.50885 2.25227,28.50885 1.2477,0 2.25225,-12.71504 2.25225,-28.50885 v -19.66129 c 0,-15.79381 -1.00455,-28.50888 -2.25225,-28.50888 z M 72.724495,210.3408 c -1.247733,0 -2.252275,12.71504 -2.252275,28.50884 v 19.6613 c 0,15.7938 1.004542,28.50887 2.252275,28.50887 1.247732,0 2.252246,-12.71507 2.252246,-28.50887 v -19.6613 c 0,-15.7938 -1.004514,-28.50884 -2.252246,-28.50884 z m 70.959055,14.5146 c -1.24773,0 -2.25228,12.71448 -2.25228,28.50831 v 19.66183 c 0,15.79381 1.00455,28.50831 2.25228,28.50831 1.2477,0 2.25171,-12.7145 2.25171,-28.50831 v -19.66183 c 0,-15.79383 -1.00401,-28.50831 -2.25171,-28.50831 z"
       id="path5286" />
  </g>
</svg>
