<?xml version="1.0" encoding="UTF-8" standalone="no"?>
<!-- Created with Inkscape (http://www.inkscape.org/) -->

<svg
   width="244mm"
   height="297mm"
   viewBox="0 0 244 297"
   version="1.1"
   id="svg2509"
   inkscape:version="1.1 (c68e22c387, 2021-05-23)"
   sodipodi:docname="cloverleaf.svg"
   xmlns:inkscape="http://www.inkscape.org/namespaces/inkscape"
   xmlns:sodipodi="http://sodipodi.sourceforge.net/DTD/sodipodi-0.dtd"
   xmlns="http://www.w3.org/2000/svg"
   xmlns:svg="http://www.w3.org/2000/svg">
  <sodipodi:namedview
     id="namedview2511"
     pagecolor="#ffffff"
     bordercolor="#666666"
     borderopacity="1.0"
     inkscape:pageshadow="2"
     inkscape:pageopacity="0.0"
     inkscape:pagecheckerboard="0"
     inkscape:document-units="mm"
     showgrid="false"
     inkscape:zoom="0.1788996"
     inkscape:cx="131.35859"
     inkscape:cy="790.94642"
     inkscape:window-width="1366"
     inkscape:window-height="711"
     inkscape:window-x="0"
     inkscape:window-y="0"
     inkscape:window-maximized="1"
     inkscape:current-layer="layer1" />
  <defs
     id="defs2506" />
  <g
     inkscape:label="Vrstva 1"
     inkscape:groupmode="layer"
     id="layer1">
    <path
       style="fill:#008000;stroke-width:0.282222"
       d="m 80.316178,3.7546955 c -11.42201,-0.0068 -25.135329,5.10334 -41.311376,16.9407565 -63.037354,46.129788 -5.463117,78.790802 64.813018,89.058978 -71.21252,-1.44687 -134.657488,21.19407 -82.426535,76.86793 44.484178,47.41648 77.907443,17.56325 94.026855,-30.67797 -0.22273,5.50861 -0.70756,11.00573 -1.76279,16.44783 -2.18082,9.57639 -5.5236,18.90526 -8.80181,28.24211 -3.9837,11.14398 -8.356482,22.18534 -14.113312,32.76937 -6.86074,14.31535 -13.819152,28.68525 -23.484529,41.82151 -4.290201,5.20169 -5.640268,7.21937 -10.64562,11.83813 -1.558939,1.43854 -7.226639,4.39735 -4.964261,4.07389 1.417066,-0.20258 2.726549,-0.67347 3.989155,-1.26386 l -12.763952,8.47768 c 8.58774,-3.53471 17.323054,-8.12141 24.851558,-12.68449 1.811246,-1.09781 3.111952,-2.71231 4.549733,-4.15872 4.750336,-4.7788 5.974645,-6.65126 10.153936,-11.93143 9.44691,-13.34931 16.45282,-27.78619 23.472962,-42.1476 5.88007,-10.66635 10.37756,-21.78039 14.4016,-33.03704 2.15635,-6.326 4.42784,-12.62731 6.36157,-19.002 9.79472,39.12189 35.96174,60.91886 82.60182,26.78837 63.03738,-46.12978 5.46317,-78.79128 -64.81301,-89.05948 71.21251,1.4469 134.65751,-21.194042 82.42655,-76.867909 C 174.64665,-19.423256 137.66572,31.426444 126.03952,93.493717 127.25747,46.738722 113.40544,3.7743665 80.316178,3.7546955 Z M 62.877952,286.09398 c 0.08286,-0.008 -1.44636,0.73269 -2.979871,1.46982 0.881097,-0.49081 1.77196,-0.96026 2.693218,-1.35576 0.178957,-0.0768 0.269184,-0.11239 0.286653,-0.11406 z"
       id="path4949"
       inkscape:connector-curvature="0" />
  </g>
</svg>
