<?xml version="1.0" encoding="UTF-8" standalone="no"?>
<!-- Created with Inkscape (http://www.inkscape.org/) -->

<svg
   xmlns:dc="http://purl.org/dc/elements/1.1/"
   xmlns:cc="http://creativecommons.org/ns#"
   xmlns:rdf="http://www.w3.org/1999/02/22-rdf-syntax-ns#"
   xmlns:svg="http://www.w3.org/2000/svg"
   xmlns="http://www.w3.org/2000/svg"
   xmlns:sodipodi="http://sodipodi.sourceforge.net/DTD/sodipodi-0.dtd"
   xmlns:inkscape="http://www.inkscape.org/namespaces/inkscape"
   width="64"
   height="40"
   id="svg3440"
   version="1.1"
   inkscape:version="0.91 r13725"
   viewBox="0 0 64 40"
   sodipodi:docname="cp.svg"
   inkscape:export-filename="/media/lukas/Data/Stazene/company.png"
   inkscape:export-xdpi="359.86023"
   inkscape:export-ydpi="359.86023">
  <defs
     id="defs3442">
    <inkscape:perspective
       sodipodi:type="inkscape:persp3d"
       inkscape:vp_x="0 : 32 : 1"
       inkscape:vp_y="0 : 1000 : 0"
       inkscape:vp_z="64 : 32 : 1"
       inkscape:persp3d-origin="32 : 21.333333 : 1"
       id="perspective4506" />
  </defs>
  <sodipodi:namedview
     id="base"
     pagecolor="#ffffff"
     bordercolor="#666666"
     borderopacity="1.0"
     inkscape:pageopacity="0.0"
     inkscape:pageshadow="2"
     inkscape:zoom="5.3272394"
     inkscape:cx="30.887921"
     inkscape:cy="15.392984"
     inkscape:current-layer="layer1"
     showgrid="true"
     inkscape:document-units="px"
     inkscape:grid-bbox="true"
     inkscape:window-width="1366"
     inkscape:window-height="715"
     inkscape:window-x="0"
     inkscape:window-y="0"
     inkscape:window-maximized="1" />
  <metadata
     id="metadata3445">
    <rdf:RDF>
      <cc:Work
         rdf:about="">
        <dc:format>image/svg+xml</dc:format>
        <dc:type
           rdf:resource="http://purl.org/dc/dcmitype/StillImage" />
        <dc:title />
      </cc:Work>
    </rdf:RDF>
  </metadata>
  <g
     id="layer1"
     inkscape:label="Layer 1"
     inkscape:groupmode="layer"
     transform="translate(0,-24)">
    <rect
       style="opacity:1;fill:none;fill-opacity:0.96195649;stroke:none"
       id="rect4185"
       width="32.099178"
       height="30.905228"
       x="3.5665753"
       y="28.737602" />
    <path
       style="opacity:1;fill:#999999;fill-opacity:0.96195649;stroke:none"
       d="M 7.4550781,23.829896 A 7.8840084,7.908102 0 0 1 7.8847656,26.374016 7.8840084,7.908102 0 0 1 0.375,34.2693 l 0,19.917904 a 7.8840084,7.908102 0 0 1 1.1269531,-0.08891 7.8840084,7.908102 0 0 1 7.8828125,7.908524 7.8840084,7.908102 0 0 1 -0.3125,2.180944 l 47.2089844,0 a 7.8840084,7.908102 0 0 1 -0.716797,-3.272362 7.8840084,7.908102 0 0 1 7.882813,-7.908524 7.8840084,7.908102 0 0 1 0.5625,0.02837 l 0,-19.204795 a 7.8840084,7.908102 0 0 1 -1.125,0.08891 A 7.8840084,7.908102 0 0 1 55,26.01084 7.8840084,7.908102 0 0 1 55.3125,23.829896 l -47.8574219,0 z"
       id="rect4187"
       inkscape:connector-curvature="0" />
    <path
       style="opacity:1;fill:#ffffff;fill-opacity:0.96195649;stroke:none"
       d="M 14.095703 3.6523438 A 5.7676374 6.5567582 0 0 1 14.410156 5.7617188 A 5.7676374 6.5567582 0 0 1 8.9160156 12.308594 L 8.9160156 28.822266 A 5.7676374 6.5567582 0 0 1 9.7402344 28.75 A 5.7676374 6.5567582 0 0 1 15.507812 35.306641 A 5.7676374 6.5567582 0 0 1 15.279297 37.115234 L 49.816406 37.115234 A 5.7676374 6.5567582 0 0 1 49.291016 34.402344 A 5.7676374 6.5567582 0 0 1 55.058594 27.84375 A 5.7676374 6.5567582 0 0 1 55.46875 27.867188 L 55.46875 11.945312 A 5.7676374 6.5567582 0 0 1 54.646484 12.017578 A 5.7676374 6.5567582 0 0 1 48.878906 5.4609375 A 5.7676374 6.5567582 0 0 1 49.107422 3.6523438 L 14.095703 3.6523438 z M 30.972656 5.4511719 C 32.265497 5.4511719 33.427622 5.5924329 34.472656 5.8574219 C 36.876628 6.0008639 38.80306 6.6473879 40.25 7.7949219 C 41.903646 9.1063889 42.730469 10.8912 42.730469 13.148438 C 42.730469 14.762551 42.255207 16.12964 41.304688 17.251953 C 40.367188 18.374266 39.058594 19.137487 37.378906 19.541016 C 39.279948 19.969764 40.757812 20.808225 41.8125 22.056641 C 42.880208 23.305056 43.414062 24.831499 43.414062 26.634766 C 43.414062 29.371192 42.548177 31.470804 40.816406 32.933594 C 39.12348 34.374406 36.70035 35.101397 33.554688 35.123047 C 32.753869 35.246263 31.897224 35.314453 30.972656 35.314453 C 29.64429 35.314453 28.450141 35.180121 27.375 34.925781 C 25.423496 34.620438 23.830933 33.962118 22.613281 32.933594 C 20.894531 31.470804 20.035156 29.371192 20.035156 26.634766 C 20.035156 24.831499 20.56901 23.305056 21.636719 22.056641 C 22.704427 20.808225 24.188802 19.969764 26.089844 19.541016 C 24.397135 19.137487 23.075521 18.374266 22.125 17.251953 C 21.1875 16.12964 20.71875 14.762551 20.71875 13.148438 C 20.71875 10.891201 21.545573 9.1063889 23.199219 7.7949219 C 23.95917 7.1969309 24.852763 6.7413396 25.867188 6.4160156 C 27.2798 5.7783826 28.976178 5.4511719 30.972656 5.4511719 z M 31.71875 9.0371094 C 30.808795 9.2268724 30.034191 9.5627004 29.429688 10.083984 C 28.492188 10.903651 28.023438 12.045023 28.023438 13.507812 C 28.023438 14.970603 28.492188 16.111974 29.429688 16.931641 C 30.029854 17.449185 30.797969 17.783847 31.699219 17.974609 C 31.717859 17.973109 31.737329 17.972303 31.755859 17.970703 C 32.64375 17.779022 33.403953 17.445632 34 16.931641 C 34.963542 16.111974 35.445312 14.970604 35.445312 13.507812 C 35.445312 12.045023 34.963542 10.903651 34 10.083984 C 33.39565 9.5628334 32.623132 9.2269084 31.71875 9.0371094 z M 31.728516 21.326172 C 30.631836 21.538341 29.712618 21.967195 28.980469 22.625 C 27.91276 23.59599 27.378906 24.932381 27.378906 26.634766 C 27.378906 28.337151 27.91276 29.673541 28.980469 30.644531 C 29.711781 31.301585 30.629599 31.730924 31.724609 31.943359 C 32.819619 31.730924 33.737438 31.301585 34.46875 30.644531 C 35.549479 29.660931 36.089844 28.32454 36.089844 26.634766 C 36.089844 24.932381 35.549479 23.59599 34.46875 22.625 C 33.745182 21.966977 32.828815 21.538264 31.728516 21.326172 z "
       transform="translate(0,24)"
       id="rect4187-1" />
  </g>
</svg>
