<?xml version="1.0" encoding="UTF-8" standalone="no"?>
<!-- Created with Inkscape (http://www.inkscape.org/) -->

<svg
   width="297"
   height="205"
   id="svg3440"
   version="1.1"
   inkscape:version="1.1 (c68e22c387, 2021-05-23)"
   viewBox="0 0 297 205"
   sodipodi:docname="number.svg"
   inkscape:export-filename="/media/lukas/Data/Stazene/company.png"
   inkscape:export-xdpi="359.86023"
   inkscape:export-ydpi="359.86023"
   xmlns:inkscape="http://www.inkscape.org/namespaces/inkscape"
   xmlns:sodipodi="http://sodipodi.sourceforge.net/DTD/sodipodi-0.dtd"
   xmlns="http://www.w3.org/2000/svg"
   xmlns:svg="http://www.w3.org/2000/svg"
   xmlns:rdf="http://www.w3.org/1999/02/22-rdf-syntax-ns#"
   xmlns:cc="http://creativecommons.org/ns#"
   xmlns:dc="http://purl.org/dc/elements/1.1/">
  <defs
     id="defs3442">
    <inkscape:perspective
       sodipodi:type="inkscape:persp3d"
       inkscape:vp_x="0 : 197 : 1"
       inkscape:vp_y="0 : 1000 : 0"
       inkscape:vp_z="64 : 197 : 1"
       inkscape:persp3d-origin="32 : 186.33333 : 1"
       id="perspective4506" />
  </defs>
  <sodipodi:namedview
     id="base"
     pagecolor="#ffffff"
     bordercolor="#666666"
     borderopacity="1.0"
     inkscape:pageopacity="0.0"
     inkscape:pageshadow="2"
     inkscape:zoom="1.3318099"
     inkscape:cx="153.92588"
     inkscape:cy="119.01098"
     inkscape:current-layer="layer1"
     showgrid="true"
     inkscape:document-units="px"
     inkscape:grid-bbox="true"
     inkscape:window-width="1366"
     inkscape:window-height="711"
     inkscape:window-x="0"
     inkscape:window-y="0"
     inkscape:window-maximized="1"
     inkscape:pagecheckerboard="0" />
  <metadata
     id="metadata3445">
    <rdf:RDF>
      <cc:Work
         rdf:about="">
        <dc:format>image/svg+xml</dc:format>
        <dc:type
           rdf:resource="http://purl.org/dc/dcmitype/StillImage" />
      </cc:Work>
    </rdf:RDF>
  </metadata>
  <g
     id="layer1"
     inkscape:label="Layer 1"
     inkscape:groupmode="layer"
     transform="translate(0,-24)">
    <rect
       style="opacity:1;fill:none;fill-opacity:0.961956;stroke:none;stroke-width:4.87061"
       id="rect4185"
       width="149.51292"
       height="157.40338"
       x="15.240855"
       y="48.825329" />
    <path
       style="opacity:1;fill:#999999;fill-opacity:0.961956;stroke:none;stroke-width:4.87061"
       d="M 33.35289,23.829896 A 36.722471,40.276747 0 0 1 35.354306,36.787351 36.722471,40.276747 0 0 1 0.375,76.998816 V 178.44268 a 36.722471,40.276747 0 0 1 5.2491702,-0.45283 36.722471,40.276747 0 0 1 36.7168998,40.27889 36.722471,40.276747 0 0 1 -1.455575,11.10777 H 260.77752 a 36.722471,40.276747 0 0 1 -3.33873,-16.66647 36.722471,40.276747 0 0 1 36.7169,-40.27889 36.722471,40.276747 0 0 1 2.62004,0.14449 V 74.763714 a 36.722471,40.276747 0 0 1 -5.24008,0.452827 36.722471,40.276747 0 0 1 -36.726,-40.278881 36.722471,40.276747 0 0 1 1.45558,-11.107764 z"
       id="rect4187"
       inkscape:connector-curvature="0" />
    <path
       style="opacity:1;fill:#ffffff;fill-opacity:0.961956;stroke:none;stroke-width:4.87061"
       d="m 64.283876,43.298002 a 26.864747,33.39422 0 0 1 1.464672,10.743256 26.864747,33.39422 0 0 1 -25.590841,33.343884 v 84.105768 a 26.864747,33.39422 0 0 1 3.839081,-0.36806 26.864747,33.39422 0 0 1 26.864469,33.39363 26.864747,33.39422 0 0 1 -1.064387,9.21134 h 160.86842 a 26.864747,33.39422 0 0 1 -2.44718,-13.81702 26.864747,33.39422 0 0 1 26.86447,-33.40357 26.864747,33.39422 0 0 1 1.91044,0.11938 V 85.534911 a 26.864747,33.39422 0 0 1 -3.82999,0.368078 26.864747,33.39422 0 0 1 -26.86447,-33.39362 26.864747,33.39422 0 0 1 1.06439,-9.211347 z m 78.610194,9.161609 c 6.02185,0 11.43484,0.719457 16.30245,2.069072 11.19732,0.730564 20.17034,4.023375 26.90996,9.86788 7.70242,6.679431 11.55363,15.769651 11.55363,27.265988 0,8.220837 -2.2137,15.183559 -6.64106,20.899609 -4.36673,5.71605 -10.46196,9.60321 -18.28568,11.65842 8.85476,2.18366 15.73841,6.45403 20.65098,12.81233 4.97322,6.3583 7.45983,14.13263 7.45983,23.31685 0,13.93689 -4.03316,24.63042 -12.09947,32.08055 -7.88539,7.3382 -19.17195,11.04084 -33.82394,11.1511 -3.73009,0.62755 -7.72021,0.97485 -12.0267,0.97485 -6.18732,0 -11.74948,-0.68416 -16.75732,-1.97954 -9.0898,-1.55514 -16.5077,-4.90803 -22.17934,-10.14641 -8.005663,-7.45013 -12.008497,-18.14366 -12.008497,-32.08055 0,-9.18422 2.486608,-16.95855 7.459829,-23.31685 4.973218,-6.3583 11.887198,-10.62867 20.741958,-12.81233 -7.88438,-2.05521 -14.04025,-5.94237 -18.46762,-11.65842 -4.36673,-5.71605 -6.550094,-12.678772 -6.550094,-20.899609 0,-11.496332 3.851212,-20.586557 11.553634,-27.265988 3.53973,-3.045628 7.70195,-5.366 12.42698,-7.022907 6.57972,-3.247528 14.48119,-4.914045 23.78047,-4.914045 z m 3.47519,18.263536 c -4.23843,0.966481 -7.84642,2.676887 -10.6621,5.331836 -4.36672,4.174645 -6.55009,9.987766 -6.55009,17.437895 0,7.450142 2.18337,13.263252 6.55009,17.437902 2.79548,2.6359 6.37324,4.34037 10.57112,5.31194 0.0868,-0.008 0.17751,-0.0117 0.26382,-0.0199 4.13566,-0.97629 7.67657,-2.67427 10.45286,-5.29208 4.48803,-4.17465 6.73203,-9.98776 6.73203,-17.437902 0,-7.450129 -2.244,-13.26325 -6.73203,-17.437895 -2.81497,-2.654272 -6.41324,-4.365171 -10.6257,-5.331836 z m 0.0456,62.589413 c -5.10816,1.0806 -9.38973,3.26479 -12.79997,6.61506 -4.97322,4.94535 -7.45983,11.75172 -7.45983,20.42214 0,8.67041 2.48661,15.47678 7.45983,20.42213 3.40634,3.34644 7.68139,5.5331 12.78177,6.61506 5.10039,-1.08196 9.37544,-3.26862 12.78178,-6.61506 5.03387,-5.00958 7.5508,-11.81595 7.5508,-20.42213 0,-8.67042 -2.51693,-15.47679 -7.5508,-20.42214 -3.37026,-3.35138 -7.63856,-5.53485 -12.76358,-6.61506 z"
       id="rect4187-1" />
  </g>
</svg>
