<?xml version="1.0" encoding="UTF-8" standalone="no"?>
<!-- Created with Inkscape (http://www.inkscape.org/) -->

<svg
   width="341mm"
   height="252mm"
   viewBox="0 0 341 252"
   version="1.1"
   id="svg2044"
   inkscape:version="1.1 (c68e22c387, 2021-05-23)"
   sodipodi:docname="rainbow.svg"
   xmlns:inkscape="http://www.inkscape.org/namespaces/inkscape"
   xmlns:sodipodi="http://sodipodi.sourceforge.net/DTD/sodipodi-0.dtd"
   xmlns="http://www.w3.org/2000/svg"
   xmlns:svg="http://www.w3.org/2000/svg">
  <sodipodi:namedview
     id="namedview2046"
     pagecolor="#ffffff"
     bordercolor="#666666"
     borderopacity="1.0"
     inkscape:pageshadow="2"
     inkscape:pageopacity="0.0"
     inkscape:pagecheckerboard="0"
     inkscape:document-units="mm"
     showgrid="false"
     inkscape:zoom="0.25300224"
     inkscape:cx="337.94167"
     inkscape:cy="618.57159"
     inkscape:window-width="1366"
     inkscape:window-height="711"
     inkscape:window-x="0"
     inkscape:window-y="0"
     inkscape:window-maximized="1"
     inkscape:current-layer="layer1" />
  <defs
     id="defs2041" />
  <g
     inkscape:label="Vrstva 1"
     inkscape:groupmode="layer"
     id="layer1">
    <g
       id="g3992"
       transform="matrix(0.26482166,0,0,0.36097369,-764.22739,14.132092)">
      <g
         id="g3999" />
      <g
         id="g4004" />
      <g
         id="g4015" />
      <g
         id="g3707">
        <g
           id="g3715">
          <path
             inkscape:connector-curvature="0"
             id="path3908-2-9-9"
             d="m 3548.5362,180.52563 a 426.16469,542.20966 0 0 0 -413.5721,464.2702 h 63.0639 a 367.10419,466.9127 0 0 1 356.603,-405.91896 367.10419,466.9127 0 0 1 370.4281,405.91896 h 52.916 a 426.16469,542.20966 0 0 0 -429.4389,-464.2702 z"
             style="color:#000000;clip-rule:nonzero;display:inline;overflow:visible;visibility:visible;opacity:1;isolation:auto;mix-blend-mode:normal;color-interpolation:sRGB;color-interpolation-filters:linearRGB;solid-color:#000000;solid-opacity:1;fill:#008000;fill-opacity:1;fill-rule:nonzero;stroke-width:1;stroke-linecap:butt;stroke-linejoin:miter;stroke-miterlimit:4;stroke-dasharray:none;stroke-dashoffset:0;stroke-opacity:1;color-rendering:auto;image-rendering:auto;shape-rendering:auto;text-rendering:auto;enable-background:accumulate" />
          <path
             style="color:#000000;clip-rule:nonzero;display:inline;overflow:visible;visibility:visible;opacity:1;isolation:auto;mix-blend-mode:normal;color-interpolation:sRGB;color-interpolation-filters:linearRGB;solid-color:#000000;solid-opacity:1;fill:#ff6600;fill-opacity:1;fill-rule:nonzero;stroke-width:1;stroke-linecap:butt;stroke-linejoin:miter;stroke-miterlimit:4;stroke-dasharray:none;stroke-dashoffset:0;stroke-opacity:1;color-rendering:auto;image-rendering:auto;shape-rendering:auto;text-rendering:auto;enable-background:accumulate"
             d="m 3537.7796,41.96851 a 571.16901,711.55495 0 0 0 -554.2918,609.27311 h 84.5216 a 492.01294,612.74094 0 0 1 477.9387,-532.69735 492.01294,612.74094 0 0 1 496.4678,532.69735 h 70.921 A 571.16901,711.55495 0 0 0 3537.7796,41.96851 Z"
             id="path3908-2"
             inkscape:connector-curvature="0" />
          <path
             inkscape:connector-curvature="0"
             id="path3908-2-9-9-1"
             d="m 3557.5641,227.24848 a 374.0283,485.76123 0 0 0 -362.9763,415.9359 h 55.3488 a 322.19318,418.3033 0 0 1 312.9766,-363.65953 322.19318,418.3033 0 0 1 325.1105,363.65953 h 46.4423 a 374.0283,485.76123 0 0 0 -376.9019,-415.9359 z"
             style="color:#000000;clip-rule:nonzero;display:inline;overflow:visible;visibility:visible;opacity:1;isolation:auto;mix-blend-mode:normal;color-interpolation:sRGB;color-interpolation-filters:linearRGB;solid-color:#000000;solid-opacity:1;fill:#0000ff;fill-opacity:1;fill-rule:nonzero;stroke-width:1;stroke-linecap:butt;stroke-linejoin:miter;stroke-miterlimit:4;stroke-dasharray:none;stroke-dashoffset:0;stroke-opacity:1;color-rendering:auto;image-rendering:auto;shape-rendering:auto;text-rendering:auto;enable-background:accumulate" />
          <path
             style="color:#000000;clip-rule:nonzero;display:inline;overflow:visible;visibility:visible;opacity:1;isolation:auto;mix-blend-mode:normal;color-interpolation:sRGB;color-interpolation-filters:linearRGB;solid-color:#000000;solid-opacity:1;fill:#ffd42a;fill-opacity:1;fill-rule:nonzero;stroke-width:1;stroke-linecap:butt;stroke-linejoin:miter;stroke-miterlimit:4;stroke-dasharray:none;stroke-dashoffset:0;stroke-opacity:1;color-rendering:auto;image-rendering:auto;shape-rendering:auto;text-rendering:auto;enable-background:accumulate"
             d="m 3542.337,111.24736 a 499.48148,628.76393 0 0 0 -484.7225,538.38283 h 73.9133 a 430.2603,541.44713 0 0 1 417.9525,-470.71685 430.2603,541.44713 0 0 1 434.156,470.71685 h 62.0197 A 499.48148,628.76393 0 0 0 3542.337,111.24736 Z"
             id="path3908-2-9"
             inkscape:connector-curvature="0" />
          <path
             style="color:#000000;clip-rule:nonzero;display:inline;overflow:visible;visibility:visible;opacity:1;isolation:auto;mix-blend-mode:normal;color-interpolation:sRGB;color-interpolation-filters:linearRGB;solid-color:#000000;solid-opacity:1;fill:#ff0000;fill-opacity:1;fill-rule:nonzero;stroke-width:1;stroke-linecap:butt;stroke-linejoin:miter;stroke-miterlimit:4;stroke-dasharray:none;stroke-dashoffset:0;stroke-opacity:1;color-rendering:auto;image-rendering:auto;shape-rendering:auto;text-rendering:auto;enable-background:accumulate"
             d="M 3527.3851,-30.391737 A 659.14917,801.87245 0 0 0 2887.7129,656.21625 h 97.5408 A 567.80028,690.516 0 0 1 3536.8118,55.903761 567.80028,690.516 0 0 1 4109.7532,656.21625 h 81.8454 A 659.14917,801.87245 0 0 0 3527.3851,-30.391737 Z"
             id="path3908"
             inkscape:connector-curvature="0" />
          <path
             inkscape:connector-curvature="0"
             id="path3908-2-9-9-1-5"
             d="m 3558.2313,277.19483 a 338.18453,433.07603 0 0 0 -328.1916,370.82389 h 50.0446 a 291.31686,372.93452 0 0 1 282.9835,-324.21733 291.31686,372.93452 0 0 1 293.9546,324.21733 h 41.9917 A 338.18453,433.07603 0 0 0 3558.2313,277.19483 Z"
             style="color:#000000;clip-rule:nonzero;display:inline;overflow:visible;visibility:visible;opacity:1;isolation:auto;mix-blend-mode:normal;color-interpolation:sRGB;color-interpolation-filters:linearRGB;solid-color:#000000;solid-opacity:1;fill:#800080;fill-opacity:1;fill-rule:nonzero;stroke-width:1;stroke-linecap:butt;stroke-linejoin:miter;stroke-miterlimit:4;stroke-dasharray:none;stroke-dashoffset:0;stroke-opacity:1;color-rendering:auto;image-rendering:auto;shape-rendering:auto;text-rendering:auto;enable-background:accumulate" />
        </g>
      </g>
    </g>
  </g>
</svg>
