<?xml version="1.0" encoding="UTF-8" standalone="no"?>
<!-- Created with Inkscape (http://www.inkscape.org/) -->

<svg
   width="262mm"
   height="297mm"
   viewBox="0 0 262 297"
   version="1.1"
   id="svg947"
   inkscape:version="1.1 (c68e22c387, 2021-05-23)"
   sodipodi:docname="strawberry.svg"
   xmlns:inkscape="http://www.inkscape.org/namespaces/inkscape"
   xmlns:sodipodi="http://sodipodi.sourceforge.net/DTD/sodipodi-0.dtd"
   xmlns="http://www.w3.org/2000/svg"
   xmlns:svg="http://www.w3.org/2000/svg">
  <sodipodi:namedview
     id="namedview949"
     pagecolor="#ffffff"
     bordercolor="#666666"
     borderopacity="1.0"
     inkscape:pageshadow="2"
     inkscape:pageopacity="0.0"
     inkscape:pagecheckerboard="0"
     inkscape:document-units="mm"
     showgrid="false"
     inkscape:zoom="0.25300224"
     inkscape:cx="535.56837"
     inkscape:cy="646.23933"
     inkscape:window-width="1366"
     inkscape:window-height="711"
     inkscape:window-x="0"
     inkscape:window-y="0"
     inkscape:window-maximized="1"
     inkscape:current-layer="layer1" />
  <defs
     id="defs944" />
  <g
     inkscape:label="Vrstva 1"
     inkscape:groupmode="layer"
     id="layer1">
    <g
       id="g4965"
       transform="matrix(0.26956721,0,0,0.25227941,-158.81365,1012.9351)">
      <g
         id="g4848">
        <path
           sodipodi:type="star"
           style="color:#000000;clip-rule:nonzero;display:inline;overflow:visible;visibility:visible;opacity:1;isolation:auto;mix-blend-mode:normal;color-interpolation:sRGB;color-interpolation-filters:linearRGB;solid-color:#000000;solid-opacity:1;fill:#d40000;fill-opacity:1;fill-rule:nonzero;stroke:#000000;stroke-width:1;stroke-linecap:butt;stroke-linejoin:miter;stroke-miterlimit:4;stroke-dasharray:none;stroke-dashoffset:0;stroke-opacity:1;color-rendering:auto;image-rendering:auto;shape-rendering:auto;text-rendering:auto;enable-background:accumulate"
           id="path3671-6-5"
           sodipodi:sides="3"
           sodipodi:cx="4938.4341"
           sodipodi:cy="-2500.1423"
           sodipodi:r1="560.05713"
           sodipodi:r2="280.02856"
           sodipodi:arg1="1.5606957"
           sodipodi:arg2="2.6078932"
           inkscape:flatsided="true"
           inkscape:rounded="0.25"
           inkscape:randomized="0"
           inkscape:transform-center-x="2.311997"
           inkscape:transform-center-y="91.94601"
           transform="matrix(0.8537549,0,0,0.80173999,-3145.97,-1283.0018)"
           d="m 4944.0909,-1940.1138 c -242.4995,2.4495 -612.6126,-623.9084 -493.4842,-835.1439 119.1284,-211.2354 846.6269,-218.5838 969.9979,-9.7979 123.3711,208.786 -234.0142,842.4923 -476.5137,844.9418 z" />
        <path
           style="color:#000000;clip-rule:nonzero;display:inline;overflow:visible;visibility:visible;opacity:0;isolation:auto;mix-blend-mode:normal;color-interpolation:sRGB;color-interpolation-filters:linearRGB;solid-color:#000000;solid-opacity:1;fill:#008000;fill-opacity:1;fill-rule:nonzero;stroke:none;stroke-width:1;stroke-linecap:butt;stroke-linejoin:miter;stroke-miterlimit:4;stroke-dasharray:none;stroke-dashoffset:0;stroke-opacity:1;color-rendering:auto;image-rendering:auto;shape-rendering:auto;text-rendering:auto;enable-background:accumulate"
           id="path5313-7"
           d="m 1092.8627,-3612.2755 c -2.0363,-18.3057 -3.117,-36.6371 -3.2095,-55.0556 0.8924,-5.6843 1.3338,-11.458 2.6773,-17.0528 3.4427,-14.3366 9.0703,-27.5009 15.4698,-40.7463 10.1553,-21.0193 22.3613,-40.7357 35.0851,-60.252 10.2147,-15.0249 21.015,-29.6351 32.0942,-44.0292 0,0 22.4028,9.8252 22.4028,9.8252 v 0 c -11.7111,13.9452 -22.9865,28.2581 -33.3474,43.2461 -20.0921,29.9391 -41.9887,64.5657 -49.7291,100.2238 -1.2005,5.5301 -1.4604,11.2233 -2.1906,16.8349 0.4482,18.4842 1.645,36.9187 4.557,55.1982 0,0 -23.8096,-8.1923 -23.8096,-8.1923 z"
           inkscape:connector-curvature="0" />
        <path
           style="color:#000000;clip-rule:nonzero;display:inline;overflow:visible;visibility:visible;opacity:0;isolation:auto;mix-blend-mode:normal;color-interpolation:sRGB;color-interpolation-filters:linearRGB;solid-color:#000000;solid-opacity:1;fill:#008000;fill-opacity:1;fill-rule:nonzero;stroke:none;stroke-width:1;stroke-linecap:butt;stroke-linejoin:miter;stroke-miterlimit:4;stroke-dasharray:none;stroke-dashoffset:0;stroke-opacity:1;color-rendering:auto;image-rendering:auto;shape-rendering:auto;text-rendering:auto;enable-background:accumulate"
           id="path5315-4"
           d="m 1086.1654,-3621.4686 c -6.7032,-20.8575 -10.1467,-42.6042 -12.8224,-64.2951 -1.0567,-13.7706 -3.4529,-27.4607 -2.7498,-41.3198 0.3454,-6.8082 1.6316,-15.0573 2.5692,-21.8242 0.9708,-3.377 1.6753,-6.8421 2.9123,-10.1309 5.7497,-15.2866 19.1166,-32.1184 30.199,-44.1134 5.3917,-5.5754 10.9842,-10.9498 16.6649,-16.2284 0,0 22.7523,10.4332 22.7523,10.4332 v 0 c -5.9131,5.0379 -11.6803,10.2478 -17.1373,15.7817 -14.4823,14.9229 -27.6616,32.2969 -32.7111,52.7825 -1.0242,7.1932 -2.2007,14.2006 -2.4967,21.4815 -0.5596,13.7609 2.0124,27.3706 2.8642,41.0599 2.5839,21.6519 5.7607,43.5569 13.8159,63.9511 0,0 -23.8605,-7.5781 -23.8605,-7.5781 z"
           inkscape:connector-curvature="0" />
        <path
           style="color:#000000;clip-rule:nonzero;display:inline;overflow:visible;visibility:visible;opacity:0;isolation:auto;mix-blend-mode:normal;color-interpolation:sRGB;color-interpolation-filters:linearRGB;solid-color:#000000;solid-opacity:1;fill:#008000;fill-opacity:1;fill-rule:nonzero;stroke:none;stroke-width:1;stroke-linecap:butt;stroke-linejoin:miter;stroke-miterlimit:4;stroke-dasharray:none;stroke-dashoffset:0;stroke-opacity:1;color-rendering:auto;image-rendering:auto;shape-rendering:auto;text-rendering:auto;enable-background:accumulate"
           id="path5317-3"
           d="m 1069.0065,-3828.7514 c -6.6578,-9.352 -7.4785,-12.0597 -4.1051,-23.4969 1.0843,-2.7141 11.8219,-17.0106 15.479,-15.428 8.5439,3.6971 16.5834,8.4651 24.8751,12.6976 3.5306,16.5522 1.8218,33.4414 1.6844,50.1817 -0.049,5.9208 0.1279,11.8414 0.1919,17.7622 0.883,37.5053 14.4135,72.147 31.1994,105.1064 13.6216,22.8797 26.8894,45.8362 36.7723,70.608 2.9945,8.6783 6.1917,20.1079 5.6984,29.4356 -0.5872,11.1033 -5.7994,20.8017 -10.955,30.2997 -2.8615,4.0851 -8.014,11.8872 -11.7355,15.6306 -1.9905,2.0023 -4.3769,3.5674 -6.5654,5.3511 0,0 -22.2097,-10.348 -22.2097,-10.348 v 0 c 2.1395,-1.6197 4.472,-3.0119 6.4186,-4.859 4.013,-3.8082 8.6968,-10.7648 11.8158,-15.0717 1.7852,-3.2778 3.8794,-6.4053 5.3555,-9.8334 7.2861,-16.9211 5.1181,-31.0214 -0.8057,-47.9063 -9.8296,-24.6199 -23.2205,-47.2883 -36.3398,-70.2631 -16.3803,-33.4023 -29.6708,-68.3463 -30.6742,-106.0372 -0.1384,-5.9758 -0.3517,-11.9503 -0.4151,-17.9273 -0.1742,-16.4229 1.2431,-33.3842 -3.4101,-49.3599 7.0876,2.1611 14.2003,4.2418 21.263,6.4834 0.6945,0.2204 -1.4438,-0.6102 -2.146,-0.4158 -1.1083,0.3067 -2.0171,1.1219 -2.9303,1.8208 -3.9156,2.9969 -7.1719,6.7613 -9.4238,11.1491 -2.9778,10.4984 -1.1297,13.1318 5.1995,21.3401 0,0 -24.2372,-6.9197 -24.2372,-6.9197 z"
           inkscape:connector-curvature="0" />
        <path
           style="color:#000000;clip-rule:nonzero;display:inline;overflow:visible;visibility:visible;opacity:0;isolation:auto;mix-blend-mode:normal;color-interpolation:sRGB;color-interpolation-filters:linearRGB;solid-color:#000000;solid-opacity:1;fill:#008000;fill-opacity:1;fill-rule:nonzero;stroke:none;stroke-width:1;stroke-linecap:butt;stroke-linejoin:miter;stroke-miterlimit:4;stroke-dasharray:none;stroke-dashoffset:0;stroke-opacity:1;color-rendering:auto;image-rendering:auto;shape-rendering:auto;text-rendering:auto;enable-background:accumulate"
           id="path5319-0"
           d="m 1058.6912,-3631.2246 c -1.896,-25.0778 0.9467,-50.2743 9.5728,-73.9994 7.5521,-20.7714 13.5752,-29.5086 24.4201,-48.5884 19.205,-31.2602 44.5084,-54.6229 73.5283,-76.386 0,0 21.2744,9.9972 21.2744,9.9972 v 0 c -4.5668,3.2861 -9.2706,6.3897 -13.7005,9.8583 -23.4975,18.3985 -44.5288,39.8528 -60.5039,65.1752 -4.4415,7.7798 -9.3324,15.3198 -13.3246,23.3395 -15.5075,31.1513 -23.0045,64.0635 -17.6729,98.6931 0,0 -23.5937,-8.0895 -23.5937,-8.0895 z"
           inkscape:connector-curvature="0" />
        <path
           style="color:#000000;clip-rule:nonzero;display:inline;overflow:visible;visibility:visible;opacity:0;isolation:auto;mix-blend-mode:normal;color-interpolation:sRGB;color-interpolation-filters:linearRGB;solid-color:#000000;solid-opacity:1;fill:#008000;fill-opacity:1;fill-rule:nonzero;stroke:none;stroke-width:1;stroke-linecap:butt;stroke-linejoin:miter;stroke-miterlimit:4;stroke-dasharray:none;stroke-dashoffset:0;stroke-opacity:1;color-rendering:auto;image-rendering:auto;shape-rendering:auto;text-rendering:auto;enable-background:accumulate"
           id="path5321-2"
           d="m 1189.684,-3723.583 c -8.9363,23.1678 -13.8775,48.6405 -17.9094,72.9 -3.596,21.6366 -6.8837,43.3442 -9.1664,65.1584 -2.7193,25.9871 -4.7846,52.0617 -5.8318,78.1697 -1.1109,27.6924 -0.426,55.4278 -0.639,83.1417 3.362,102.3301 1.0793,52.8046 6.6086,148.5873 0,0 -16.4467,-5.8284 -16.4467,-5.8284 v 0 c -4.0464,-95.4147 -2.3081,-46.0394 -5.0618,-148.1313 0.056,-27.8059 -0.6333,-55.6232 0.1686,-83.4175 1.4363,-49.7823 5.4198,-95.6592 11.4552,-144.8635 2.7567,-22.4747 6.3717,-46.0796 11.3671,-68.4064 0.503,-2.248 1.3494,-4.4052 2.0242,-6.6077 0,0 23.4314,9.2977 23.4314,9.2977 z"
           inkscape:connector-curvature="0" />
        <path
           style="color:#000000;clip-rule:nonzero;display:inline;overflow:visible;visibility:visible;opacity:0;isolation:auto;mix-blend-mode:normal;color-interpolation:sRGB;color-interpolation-filters:linearRGB;solid-color:#000000;solid-opacity:1;fill:#008000;fill-opacity:1;fill-rule:nonzero;stroke:none;stroke-width:1;stroke-linecap:butt;stroke-linejoin:miter;stroke-miterlimit:4;stroke-dasharray:none;stroke-dashoffset:0;stroke-opacity:1;color-rendering:auto;image-rendering:auto;shape-rendering:auto;text-rendering:auto;enable-background:accumulate"
           id="path5323-0"
           d="m 1088.4465,-3276.1883 c 33.0698,-48.6851 76.1227,-113.1437 109.976,-154.9446 42.2578,-52.1786 87.7343,-101.6694 132.1341,-152.038 46.842,-53.1391 94.39,-105.6518 141.585,-158.4777 0,0 0.8594,0.382 0.8594,0.382 v 0 c -92.8971,105.2999 -181.7614,201.0325 -264.8691,314.2988 -41.3061,56.2954 -65.6051,102.5299 -97.491,160.0172 0,0 -22.1944,-9.2377 -22.1944,-9.2377 z"
           inkscape:connector-curvature="0" />
        <path
           style="color:#000000;clip-rule:nonzero;display:inline;overflow:visible;visibility:visible;opacity:0;isolation:auto;mix-blend-mode:normal;color-interpolation:sRGB;color-interpolation-filters:linearRGB;solid-color:#000000;solid-opacity:1;fill:#008000;fill-opacity:1;fill-rule:nonzero;stroke:none;stroke-width:1;stroke-linecap:butt;stroke-linejoin:miter;stroke-miterlimit:4;stroke-dasharray:none;stroke-dashoffset:0;stroke-opacity:1;color-rendering:auto;image-rendering:auto;shape-rendering:auto;text-rendering:auto;enable-background:accumulate"
           id="path5325-7"
           d="m 1093.3693,-3588.9789 c 0.14,-22.9281 -0.9537,-45.8541 -1.2992,-68.7833 -0.153,-10.152 -0.6573,-20.3086 -0.3584,-30.4573 0.2914,-9.8955 1.4185,-19.7486 2.1278,-29.6228 3.5715,-26.7484 11.7759,-49.5001 27.6262,-71.381 11.2357,-15.5105 25.5418,-28.3415 39.6368,-41.1251 0,0 21.481,9.8592 21.481,9.8592 v 0 c -14.3746,12.3723 -28.8448,24.8051 -40.237,40.1429 -15.8871,21.3896 -24.0989,43.7872 -27.8258,70.1195 -0.7197,9.801 -1.9126,19.5786 -2.159,29.4029 -0.8395,33.4837 3.4001,66.8842 4.4807,100.2959 0,0 -23.4731,-8.4509 -23.4731,-8.4509 z"
           inkscape:connector-curvature="0" />
        <path
           style="color:#000000;clip-rule:nonzero;display:inline;overflow:visible;visibility:visible;opacity:0;isolation:auto;mix-blend-mode:normal;color-interpolation:sRGB;color-interpolation-filters:linearRGB;solid-color:#000000;solid-opacity:1;fill:#008000;fill-opacity:1;fill-rule:nonzero;stroke:none;stroke-width:1;stroke-linecap:butt;stroke-linejoin:miter;stroke-miterlimit:4;stroke-dasharray:none;stroke-dashoffset:0;stroke-opacity:1;color-rendering:auto;image-rendering:auto;shape-rendering:auto;text-rendering:auto;enable-background:accumulate"
           id="path5327-3"
           d="m 1173.4293,-3744.5973 c -1.08,33.0847 0.8768,66.7405 9.3455,98.8974 7.2836,27.657 17.6154,50.2619 28.4628,76.5136 0,0 -19.908,-6.3069 -19.908,-6.3069 v 0 c -10.1526,-25.1473 -21.2789,-50.7408 -28.5078,-76.9547 -9.0365,-32.7684 -11.6064,-66.8143 -12.9023,-100.6134 0,0 23.5098,8.464 23.5098,8.464 z"
           inkscape:connector-curvature="0" />
        <ellipse
           ry="176.32445"
           rx="78.839928"
           cy="2689.8572"
           cx="1291.6044"
           id="path4132-2-2"
           style="fill:#ffffff"
           transform="matrix(-0.52302812,-0.85231543,0.69610404,-0.71794092,0,0)" />
        <ellipse
           style="fill:#ffff00"
           id="path4525"
           cx="762.34949"
           cy="-3435.5564"
           rx="8.8388348"
           ry="33.14563" />
        <ellipse
           style="fill:#ffff00"
           id="path4525-1"
           cx="828.64081"
           cy="-3391.3621"
           rx="8.8388348"
           ry="33.14563" />
        <ellipse
           style="fill:#ffff00"
           id="path4525-5"
           cx="936.9165"
           cy="-3415.6689"
           rx="8.8388348"
           ry="33.14563" />
        <ellipse
           style="fill:#ffff00"
           id="path4525-17"
           cx="861.78638"
           cy="-3247.731"
           rx="8.8388348"
           ry="33.14563" />
        <ellipse
           style="fill:#ffff00"
           id="path4525-3"
           cx="1003.2078"
           cy="-3272.0378"
           rx="8.8388348"
           ry="33.14563" />
        <ellipse
           style="fill:#ffff00"
           id="path4525-2"
           cx="1151.2583"
           cy="-3402.4106"
           rx="8.8388348"
           ry="33.14563" />
        <ellipse
           style="fill:#ffff00"
           id="path4525-6"
           cx="1259.5339"
           cy="-3451.0242"
           rx="8.8388348"
           ry="33.14563" />
        <ellipse
           style="fill:#ffff00"
           id="path4525-38"
           cx="1009.8369"
           cy="-3424.5078"
           rx="8.8388348"
           ry="33.14563" />
        <ellipse
           style="fill:#ffff00"
           id="path4525-9"
           cx="1109.2738"
           cy="-3272.0378"
           rx="8.8388348"
           ry="33.14563" />
        <ellipse
           style="fill:#ffff00"
           id="path4525-99"
           cx="1252.9049"
           cy="-3298.5544"
           rx="8.8388348"
           ry="33.14563" />
        <ellipse
           style="fill:#ffff00"
           id="path4525-8"
           cx="1374.4388"
           cy="-3508.4766"
           rx="8.8388348"
           ry="33.14563" />
        <ellipse
           style="fill:#ffff00"
           id="path4525-35"
           cx="934.70679"
           cy="-3082.0029"
           rx="8.8388348"
           ry="33.14563" />
        <ellipse
           style="fill:#ffff00"
           id="path4525-7"
           cx="917.02911"
           cy="-3199.1174"
           rx="8.8388348"
           ry="33.14563" />
        <ellipse
           style="fill:#ffff00"
           id="path4525-0"
           cx="992.15924"
           cy="-3170.3911"
           rx="8.8388348"
           ry="33.14563" />
        <ellipse
           style="fill:#ffff00"
           id="path4525-4"
           cx="1078.3379"
           cy="-3177.0203"
           rx="8.8388348"
           ry="33.14563" />
        <ellipse
           style="fill:#ffff00"
           id="path4525-95"
           cx="804.33398"
           cy="-3130.6165"
           rx="8.8388348"
           ry="33.14563" />
        <ellipse
           style="fill:#ffff00"
           id="path4525-18"
           cx="711.52618"
           cy="-3342.7485"
           rx="8.8388348"
           ry="33.14563" />
        <ellipse
           style="fill:#ffff00"
           id="path4525-958"
           cx="799.91455"
           cy="-3265.4087"
           rx="8.8388348"
           ry="33.14563" />
        <ellipse
           style="fill:#ffff00"
           id="path4525-358"
           cx="1370.0194"
           cy="-3344.9583"
           rx="8.8388348"
           ry="33.14563" />
        <ellipse
           style="fill:#ffff00"
           id="path4525-83"
           cx="1305.9379"
           cy="-3252.1504"
           rx="8.8388348"
           ry="33.14563" />
        <ellipse
           style="fill:#ffff00"
           id="path4525-70"
           cx="1006.25"
           cy="-3010.1379"
           rx="8.8388348"
           ry="33.14563" />
        <ellipse
           style="fill:#ffff00"
           id="path4525-88"
           cx="1193.75"
           cy="-3210.1379"
           rx="8.8388348"
           ry="33.14563" />
        <path
           style="fill:#008000"
           d="m 593.33171,-3568.4364 c 0,0 131.80559,14.4418 202.94514,35.4998 a 201.0605,142.5262 4.2 0 0 91.83506,23.1416 201.0605,142.5262 4.2 0 0 210.95909,-127.4174 201.0605,142.5262 4.2 0 0 -190.08267,-156.8699 201.0605,142.5262 4.2 0 0 -194.18656,78.046 c -86.10438,116.3568 -121.47006,147.5999 -121.47006,147.5999 z"
           id="path4704"
           inkscape:connector-curvature="0" />
        <path
           style="fill:#008000"
           d="m 1554.8191,-3496.1825 c 0,0 -130.8341,-21.5352 -205.0162,-20.3832 a 201.0605,142.5262 11.4 0 1 -94.6754,-2.4082 201.0605,142.5262 11.4 0 1 -168.9226,-179.4541 201.0605,142.5262 11.4 0 1 225.2664,-99.9739 201.0605,142.5262 11.4 0 1 166.0451,127.391 c 51.6416,135.2261 77.3027,174.8284 77.3027,174.8284 z"
           id="path4704-2"
           inkscape:connector-curvature="0" />
        <path
           style="fill:#002b00"
           d="m 1467.0469,-3442.0897 c 0,0 -131.6764,-15.578 -205.7298,-11.0621 a 201.0605,142.5262 8.8 0 1 -94.6872,1.8891 201.0605,142.5262 8.8 0 1 -176.88929,-171.6066 201.0605,142.5262 8.8 0 1 220.49939,-110.0897 201.0605,142.5262 8.8 0 1 171.653,119.7275 c 57.7227,132.7443 85.1539,171.1418 85.1539,171.1418 z"
           id="path4704-2-3"
           inkscape:connector-curvature="0" />
        <path
           style="fill:#002b00"
           id="path4758"
           d="m 1068.4338,-3629.4266 c 0.3499,-3.3858 1.4436,-14.0049 1.6627,-15.8838 2.2783,-19.5391 2.3012,-16.232 4.3324,-38.4449 2.5377,-27.7513 2.5989,-33.4342 4.2651,-62.4499 0.4762,-34.1697 1.5769,-43.7066 -2.0479,-78.4304 -1.5013,-14.3823 -2.9265,-28.8475 -6.1599,-42.9418 -3.4952,-15.2354 -8.189,-30.2407 -13.9615,-44.7669 -12.6362,-31.7982 -22.4631,-44.2504 -40.4023,-71.9399 0,0 31.4627,-18.2154 31.4627,-18.2154 v 0 c 20.6725,38.1521 41.8544,76.6674 53.0105,118.9833 3.6755,13.9416 5.3741,28.344 7.3185,42.6302 4.5967,33.7738 4.0824,44.0045 5.1109,77.3094 0.094,41.6465 0,22.0643 0.2564,60.2719 0.025,3.7496 0.1497,29.748 0.343,35.965 0.2265,7.2871 0.4254,8.176 1.1341,14.3096 0,0 -46.3247,23.6036 -46.3247,23.6036 z"
           inkscape:connector-curvature="0" />
        <path
           style="fill:#002b00"
           id="path4778"
           d="m 1229.2656,-3746.356 c 12.8071,-0.9726 25.2438,-4.3111 37.4782,-8.0713 2.3875,-0.7596 4.7749,-1.5193 7.1623,-2.279 0,0 -7.9497,6.1532 -7.9497,6.1532 v 0 c -2.3458,0.7238 -4.6917,1.4477 -7.0375,2.1715 -12.5977,3.7853 -25.3599,7.0368 -38.4372,8.6319 0,0 8.7839,-6.6063 8.7839,-6.6063 z"
           inkscape:connector-curvature="0" />
        <path
           style="fill:#002b00"
           id="path4780"
           d="m 1284.1494,-3731.3961 c 15.1055,-2.2043 30.4438,-2.6932 45.6838,-3.3174 12.3108,-0.8755 24.5711,0.4668 36.5606,3.2751 3.4875,0.8169 6.893,1.9514 10.3395,2.927 0,0 -7.9107,5.4139 -7.9107,5.4139 v 0 c -3.3675,-0.9948 -6.6872,-2.1688 -10.1025,-2.9846 -11.9797,-2.8615 -24.2449,-3.915 -36.5353,-3.0205 -15.5012,0.7921 -31.4136,1.2752 -46.6513,4.3585 0,0 8.6159,-6.652 8.6159,-6.652 z"
           inkscape:connector-curvature="0" />
        <path
           style="fill:#002b00"
           id="path4782"
           d="m 1335.8528,-3712.0396 c 13.0525,5.7596 26.7443,9.9805 40.3256,14.3011 12.4104,3.9655 24.7181,8.4071 36.2913,14.4513 7.0791,3.6972 10.8382,6.2733 17.5734,10.5379 8.5169,5.5453 16.7734,11.4805 24.8086,17.7012 3.9017,3.0207 8.8476,6.9044 12.446,10.4056 1.4795,1.4396 2.7956,3.0381 4.1934,4.5571 0,0 -8.764,5.3055 -8.764,5.3055 v 0 c -1.3292,-1.5208 -2.576,-3.1176 -3.9875,-4.5623 -10.8243,-11.0777 -24.1769,-19.4029 -36.8093,-28.1847 -7.0215,-4.4298 -10.1422,-6.6109 -17.5355,-10.4243 -11.5817,-5.9736 -23.8884,-10.3503 -36.2786,-14.2973 -13.8303,-4.3079 -27.6493,-8.6636 -41.2523,-13.6524 0,0 8.9889,-6.1387 8.9889,-6.1387 z"
           inkscape:connector-curvature="0" />
        <path
           style="fill:#002b00"
           id="path4786"
           d="m 1423.0987,-3631.4776 c 9.0213,3.6354 16.1589,10.4362 22.9959,17.1286 6.5055,6.9476 12.4142,14.4064 18.3223,21.8566 0,0 -8.3141,4.9676 -8.3141,4.9676 v 0 c -5.9349,-7.3951 -11.8475,-14.8275 -18.5371,-21.5702 -6.9537,-6.4674 -14.2825,-13.2075 -23.5111,-16.1886 0,0 9.0441,-6.194 9.0441,-6.194 z"
           inkscape:connector-curvature="0" />
        <path
           style="fill:#002b00"
           id="path4790"
           d="m 1433.2302,-3553.9443 c 6.6329,0.6026 13.2658,1.075 19.922,0.7828 0,0 -8.4561,6.1905 -8.4561,6.1905 v 0 c -6.7735,0.192 -13.5119,-0.3498 -20.2807,-0.569 0,0 8.8148,-6.4043 8.8148,-6.4043 z"
           inkscape:connector-curvature="0" />
        <path
           style="fill:#002b00"
           id="path4794"
           d="m 988.86346,-3705.3793 c -8.50199,-6.7058 -17.62482,-12.6778 -27.13945,-17.8503 -4.15137,-2.2569 -8.41863,-4.2937 -12.62795,-6.4405 -25.05416,-11.9577 -52.05032,-18.6379 -79.04909,-24.4935 0,0 7.79,-5.4032 7.79,-5.4032 v 0 c 26.90205,6.1437 53.69507,13.2553 78.81736,24.9188 4.34221,2.0821 8.7413,4.0494 13.02661,6.2461 9.82126,5.0346 19.11844,11.011 28.39694,16.9599 0,0 -9.21442,6.0627 -9.21442,6.0627 z"
           inkscape:connector-curvature="0" />
        <path
           style="fill:#002b00"
           id="path4796"
           d="m 898.3608,-3695.6328 c -0.91042,-0.4986 -4.31262,-2.3652 -4.60219,-2.5002 -6.03444,-2.8131 -10.66516,-4.2267 -17.52947,-6.1549 -13.14606,-3.6928 -20.40923,-5.009 -33.98854,-7.9163 -25.19296,-4.6184 -12.57224,-2.5718 -37.86143,-6.1441 0,0 6.8212,-4.8101 6.8212,-4.8101 v 0 c 25.31764,3.6282 12.66335,1.5838 37.96177,6.14 15.4882,3.157 19.71597,3.8623 34.70793,7.4987 8.17093,1.982 16.22549,3.92 23.70516,7.8241 0,0 -9.21443,6.0628 -9.21443,6.0628 z"
           inkscape:connector-curvature="0" />
        <path
           style="fill:#002b00"
           id="path4798"
           d="m 835.25516,-3662.3772 c -9.79527,-4.4958 -19.69039,-8.6196 -30.10609,-11.4885 -3.50327,-0.965 -7.05796,-1.7325 -10.58694,-2.5987 -10.572,-2.3243 -21.33128,-3.583 -32.03764,-5.0941 0,0 7.8694,-5.5468 7.8694,-5.5468 v 0 c 10.69719,1.5794 21.44734,2.8967 32.01878,5.2193 9.69324,2.3499 11.3224,2.5612 20.69671,5.54 8.10679,2.5761 7.50311,2.5699 14.44431,5.329 3.68167,1.4634 3.58761,1.4045 6.81652,2.5654 0,0 -9.11505,6.0744 -9.11505,6.0744 z"
           inkscape:connector-curvature="0" />
        <path
           style="fill:#002b00"
           id="path4800"
           d="m 781.13254,-3642.6712 c -9.66983,-1.9667 -19.61825,-2.0229 -29.41254,-1.2025 0,0 8.2903,-6.1203 8.2903,-6.1203 v 0 c 10.0546,-0.6928 20.2599,-0.545 30.21244,1.1552 0,0 -9.0902,6.1676 -9.0902,6.1676 z"
           inkscape:connector-curvature="0" />
        <path
           style="fill:#002b00"
           id="path4802"
           d="m 725.69368,-3618.5141 c -5.31982,-0.1175 -10.64136,-0.1315 -15.96218,-0.1653 0,0 8.458,-6.1451 8.458,-6.1451 v 0 c 5.47254,-0.034 10.94572,-0.05 16.41732,-0.1653 0,0 -8.91314,6.4757 -8.91314,6.4757 z"
           inkscape:connector-curvature="0" />
        <path
           style="fill:#002b00"
           id="path4804"
           d="m 737.52083,-3603.7164 c 0.97354,3.9301 1.6541,7.403 1.23566,11.4589 0,0 -9.66135,4.7755 -9.66135,4.7755 v 0 c 0.56273,-3.9293 -0.0724,-7.2088 -1.1991,-10.988 0,0 9.62479,-5.2464 9.62479,-5.2464 z"
           inkscape:connector-curvature="0" />
        <path
           style="fill:#002b00"
           id="path4806"
           d="m 798.51441,-3615.9421 c -0.38986,6.165 -0.0297,12.3591 -0.30338,18.5245 -0.22778,5.1314 -0.69332,7.8043 -1.36487,12.9209 -0.31779,2.2945 -0.63558,4.589 -0.95338,6.8834 0,0 -9.08427,4.4755 -9.08427,4.4755 v 0 c 0.30362,-2.2858 0.60725,-4.5715 0.91088,-6.8573 0.59925,-4.5842 1.17717,-8.1486 1.34693,-12.763 0.22302,-6.0619 -0.24692,-12.1539 -0.30338,-18.2154 0,0 9.75147,-4.9686 9.75147,-4.9686 z"
           inkscape:connector-curvature="0" />
        <path
           style="fill:#002b00"
           id="path4810"
           d="m 854.18669,-3621.1674 c -0.12517,14.7838 0.71326,29.552 0.40212,44.3341 -1.07795,9.9482 -0.22418,5.0769 -2.52525,14.6201 0,0 -9.09052,4.3551 -9.09052,4.3551 v 0 c 2.43411,-9.4216 1.51477,-4.601 2.71721,-14.4695 0.4336,-14.6328 -0.12259,-29.2967 -1.21171,-43.8932 0,0 9.70815,-4.9466 9.70815,-4.9466 z"
           inkscape:connector-curvature="0" />
        <path
           style="fill:#002b00"
           id="path4812"
           d="m 910.16685,-3649.2909 c 2.48408,12.529 2.59608,25.2691 2.27334,37.9828 -0.69673,11.4705 -0.39822,10.6654 -2.11344,22.1456 -0.5288,3.5393 -0.97532,7.1019 -1.80412,10.5832 -0.81485,3.4227 -2.07753,6.723 -3.11629,10.0846 0,0 -8.68566,4.0969 -8.68566,4.0969 v 0 c 1.06671,-3.328 2.36077,-6.5916 3.20013,-9.9842 0.86016,-3.4766 1.34375,-7.0373 1.88706,-10.5773 1.71725,-11.1888 1.42349,-10.7963 2.02859,-21.9838 0.0311,-3.3784 0.18159,-6.7577 0.0932,-10.1351 -0.23724,-9.0634 -1.33529,-18.2156 -3.37718,-27.0461 0,0 9.61438,-5.1666 9.61438,-5.1666 z"
           inkscape:connector-curvature="0" />
        <path
           style="fill:#002b00"
           id="path4822"
           d="m 978.15986,-3655.4441 c 0.59468,12.9361 0.50254,25.8861 0.25037,38.8284 -1.33882,19.9649 -3.46068,40.0561 -8.87684,59.3912 -2.26588,8.089 -6.39129,18.6435 -9.34819,26.5545 0,0 -8.29291,3.8542 -8.29291,3.8542 v 0 c 2.92938,-7.6448 7.35585,-18.7298 9.60143,-26.5427 5.50821,-19.1643 7.62982,-39.1472 8.54626,-58.9954 -0.17597,-12.6955 -0.19526,-25.4645 -1.69656,-38.0885 0,0 9.81644,-5.0017 9.81644,-5.0017 z"
           inkscape:connector-curvature="0" />
      </g>
      <path
         inkscape:connector-curvature="0"
         d="m 989.68354,-3681.5419 c -16.08396,3.0197 -32.49813,3.4125 -48.71827,5.3366 -14.94106,1.7723 -25.34077,3.6392 -40.21127,6.0668 -31.57182,4.9713 -61.93742,15.042 -92.39063,24.3948 -3.25929,1.1567 -14.24919,4.9874 -17.87733,6.5198 -2.28393,0.9646 -8.0785,5.2745 -6.71129,3.2062 1.51173,-2.2868 4.59353,-3.1361 7.20859,-3.9585 1.77798,-0.5591 -3.13803,2.0188 -4.62287,3.1454 -1.28828,0.9774 -2.4558,2.1045 -3.68371,3.1568 -1.15748,1.0391 -2.31497,2.0782 -3.47245,3.1173 0,0 -13.95246,5.6918 -13.95246,5.6918 v 0 c 1.1667,-1.0481 2.3334,-2.0961 3.50011,-3.1441 14.31594,-12.9512 32.51255,-20.596 50.72136,-26.3171 30.16759,-9.0154 60.24697,-18.7422 91.47659,-23.4749 12.97882,-2.1128 27.56752,-4.6015 40.61555,-6.2708 16.74007,-2.1416 33.8116,-2.6443 50.21454,-6.9203 0,0 -12.09646,9.4502 -12.09646,9.4502 z"
         id="path4963"
         style="fill:#17280b" />
    </g>
  </g>
</svg>
